<?xml version="1.0" encoding="utf-8"?>
<!-- Generator: Adobe Illustrator 24.3.0, SVG Export Plug-In . SVG Version: 6.00 Build 0)  -->
<svg version="1.1" id="Слой_1" xmlns="http://www.w3.org/2000/svg" xmlns:xlink="http://www.w3.org/1999/xlink" x="0px" y="0px"
	 viewBox="0 0 3630.2 893.5" style="enable-background:new 0 0 3630.2 893.5;" xml:space="preserve">
<style type="text/css">
	.st0{fill:#000033;}
	.st1{fill:none;stroke:#FFFFFF;stroke-width:0.25;stroke-miterlimit:10;}
	.st2{fill:none;stroke:#FFFFFF;stroke-miterlimit:10;}
	.st3{fill:none;stroke:#3398FF;stroke-width:15;stroke-miterlimit:10;}
	.st4{fill:none;stroke:#3398FF;stroke-width:10;stroke-miterlimit:10;}
	.st5{fill:none;stroke:#3398FF;stroke-width:20;stroke-miterlimit:10;}
</style>
<rect class="st0" width="3630.2" height="893.5"/>
<path class="st1" d="M389,542.1"/>
<path class="st1" d="M736.1,542.1"/>
<path class="st1" d="M291.1,542.1"/>
<path class="st1" d="M391.8,542.1"/>
<path class="st2" d="M842.7,543.5"/>
<path class="st2" d="M291.2,543.5"/>
<path class="st3" d="M793.1,373.9c0,3.5-1.5,5.1-5.1,6.6c-89.8,53.3-352,51.6-432.9,4.9c-12.9-6.3-12.8-6.4-12.8-18.6
	c0-29.6,0-104.4,0-134.1v-0.4c0-2.4,0.8-4.1,3.5-3.3c8.3,2.5,18.5,4.8,26.5,7.3c59.1,17.8,118.2,35.6,177.3,53.2
	c14.4,4.3,28.8,4.1,43.2-0.2c64.7-19.7,127.4-37.6,192.1-57.3c0.2,0,2.2-0.6,2.4-0.7c2.8-0.8,5.7-0.3,5.7,2.1l0,0
	C793,265.1,792.9,342.1,793.1,373.9z"/>
<path class="st3" d="M1015.8,159.1c-1.1-0.7-2.3-1.4-3.6-1.8c-6.6-2.2-13.2-4.4-19.8-6.5c-42.2-13.9-84.5-27.6-126.7-41.5
	c-93.4-30.5-186.8-61.1-280.2-91.6c-8.9-2.9-17.8-3-26.8-0.1c-35.1,11.3-70.2,22.6-105.4,33.9l-294.3,94.7c-12.4,4-25,8-37.3,12.2
	c-0.6,0.2-1.1,0.5-1.7,0.9c-1.8,1.4-1.8,3.7,0.1,5c0.5,0.4,1.1,0.7,1.7,0.9c4,1.5,10.5,4.2,14.8,5.2c4.2,0.9,6.8,1.3,6.7,4.6
	c-0.7,17.3,0.5-4.4-0.8,28.4l0.4,31.8c-0.8,0-1.4-0.1-1.9-0.1c-0.7,0-2.3-0.1-2.8,0c-14.2,0.8-27.1,3.6-40.5,7.4
	C79.1,247.9,63.5,256.4,52,269c-12.1,13.5-16,28.7-15.2,44.9c0.5,11.9,4.5,23.2,13.1,33.2c8.5,10.1,20.1,17.6,33.3,23.7
	c15.9,7.3,33.1,12.3,50.9,16.3c1.8,0.4,2.4,0.8,2.4,2.4c-0.1,34.7-2.6,60.9-2.6,95.6l0,5.5c-5.5-0.6-7.8-1.6-12.1-2
	c-13.2-2.6-21-4.4-33.5-8.1c-9.9-4.1-18.1-5.9-22.7-13.2c-1.3-1.9-1-3.1,0.6-4.7c10.6-10.5,13.5-22.4,8.5-35.1
	c-4.6-11.6-22.3-16.1-34.9-9.1c-5.8,3.2-9.4,7.7-11.3,13c-3.5,9.7-2.3,19.5,1.7,28.9c5,12,15,21.2,27.6,28.9
	c18.9,11.5,40.9,17.1,64.6,19.5c1.7,0.2,3.3,0.3,5,0.4c5.2,0.4,9.2,3.9,9.2,8.1l0,29.9h20.3v-1.8c0-11.2,0.1-21.4,0-32.7
	c0-1,0.6-1.3,2.2-1.5c8.7-1,17-2.8,25.5-4.2c16.6-2.7,32.2-7.3,46.2-14.8c16.8-9,28.9-20.8,34.8-36c4.3-11.5,4.9-23.2,2.8-34.9
	c-2.8-15.5-11.5-28.7-26.6-39.3c-11.4-7.9-24.6-13.7-38.5-18.7c-12.3-4.4-25-8.1-37.9-11.2c-1.8-0.4-2.3-1-2.2-2.3
	c0.2-2.3,0.1-4.5,0.1-6.8c0.1-24.9,0.1-49.9,0.2-74.8c0-3,0-6,0.1-9l0.3-3.9c-0.9-0.5,41.3,4.4,50.1,10.8c1,0.8,3.1,2.3,2.5,3.3
	c-1.8,2.6-1.8,3.7-3,6.5c-4.2,8.8-4.8,17.7-0.2,26.6c4.3,8.5,14.1,12.7,25.5,11c9.4-1.4,14.8-6.2,17.3-12.9c4-10.8,2-21.2-5.1-31
	c-6.4-9-16.3-15.3-27.6-20.5c-15.7-7.1-32.9-10.3-50.7-12c-2.4-0.3-8.8-0.7-9.4-0.8l0.7-31.7c1.2-29-0.1-8,0.9-24.2
	c0.1-1.2,0.9-1.6,1.6-1.5c2.1,0.2-0.8-0.1,1.8,0.3c3.2,1,10.5,2.9,10.7,3c106.1,30.1,108.4,30.4,155.9,43.9
	c73.4,20.9,146.9,41.7,220.3,62.7c11.7,3.3,22.8,3.3,34.4-0.1c71-20.5,142-41,213-61.5h0c69.9-20.2,139.5-40.3,209.3-60.5
	c1.5-0.4,2.7-1.1,4-1.9C1017.9,163.1,1018,160.5,1015.8,159.1z M118.6,343.2c-9-3.6-14.1-6.1-20.5-11.7
	c-8.3-7.2-11.4-13.3-12.8-22.5c-1.5-10.7-0.9-17.8,4.3-27.9c6.9-13.1,18.3-20.7,36-25c3.8-0.9,7.5-1.6,11.5-2.3
	c1.8-0.3,3.5,0.7,3.6,2.2c0.6,15.9-0.2,93.9-0.2,93.9C125.4,346,125.4,345.9,118.6,343.2z M167.6,395.1c11,2.9,21.3,6.6,30.2,12.2
	c13.1,8.2,19.9,18.8,20.9,31.8c0.8,9.1-0.8,17.8-6,26c-8.5,13.3-23.3,19.1-40.8,24.3c-3.7,0.7-7.7,1.5-11.9,1.8v-98.5
	C163.4,393.8,165.1,394.5,167.6,395.1z"/>
<g>
	<path class="st4" d="M605.2,50.1c-0.1,0.5-0.4,1-0.6,1.5c-9.5,20.6-19.1,41.5-28.8,62.5c-0.3,0.6-0.5,1.3-0.9,2.2
		c1.9-0.1,3.4-0.2,5-0.3c4.6-0.4,9.2-0.8,13.9-1.1c0.9-0.1,1.7-0.3,2.5-0.2c0.8,0.1,1.6,0.2,2.3,0.5c1.2,0.6,1.5,1.9,0.9,3.1
		c-0.2,0.5-0.5,0.9-0.8,1.3c-10.1,15.8-20.3,31.8-30.6,47.9c-0.2,0.4-0.5,0.7-0.7,1.1c-0.6,1.1-0.3,1.6,1,1.5
		c2.4-0.1,4.8-0.4,7.3-0.5c4.8-0.4,9.6-0.8,14.4-1.2c0.1,0,0.2,0,0.3,0c1.3-0.1,2.5,0.2,3.2,1.4c0.7,1.2,0.1,2.2-0.7,3.2
		c-11.6,14.6-23.2,29.3-35,44.1c-11.4,14.4-22.9,28.8-34.4,43.4c-0.4,0.4-0.6,0.9-1.1,1.2c-0.3,0.2-0.9,0.3-1.3,0.2
		c-0.6-0.2-0.6-0.8-0.3-1.3c0.2-0.4,0.4-0.8,0.6-1.2c11.9-24.7,23.7-49.1,35.3-73.1c0.3-0.5,0.5-1.1,0.9-1.9c-0.8,0-1.3,0-1.8,0
		c-5.7,0.5-11.5,1-17.2,1.5c-1.4,0.1-2.7,0.3-4,0.3c-0.8,0-1.7-0.3-2.4-0.7c-0.9-0.5-1.2-1.7-0.7-2.7c0.2-0.5,0.6-1,0.9-1.5
		c9.6-14.8,19.2-29.4,28.7-43.9c0.2-0.3,0.4-0.5,0.5-0.8c0.1-0.4,0.4-1.1,0.3-1.4c-0.2-0.3-1-0.4-1.4-0.4c-1.5,0.1-3.1,0.2-4.6,0.4
		c-4.7,0.4-9.5,0.8-14.2,1.1c-0.3,0-0.7,0-1,0c-1.1,0-2-0.5-2.5-1.4c-0.5-1-0.3-1.9,0.4-2.7c3.4-4.4,6.9-8.7,10.3-13
		c18.3-23.2,36.4-46.1,54.2-68.8c0.3-0.4,0.7-0.9,1.1-1.2c0.3-0.2,0.8-0.3,1.1-0.1C605,49.3,605.2,49.8,605.2,50.1z"/>
</g>
<path class="st5" d="M689.6,473.9c31.5,30.8,51,73.4,51,120.3c0,94.3-78.4,170.7-175.2,170.7s-175.2-76.4-175.2-170.7
	c0-46.9,19.5-89.5,51-120.3"/>
<line class="st5" x1="512.4" y1="448.7" x2="512.4" y2="639.1"/>
<line class="st5" x1="621.5" y1="447.3" x2="621.5" y2="640.4"/>
<g>
	<path class="st5" d="M1116.8,326.6c18.6,8.3,32.8,20.1,42.7,35.5c9.9,15.4,14.9,33.7,14.9,54.9c0,20.9-5,39.2-14.9,54.7
		c-9.9,15.6-24.2,27.5-42.7,35.7c-18.6,8.3-40.4,12.4-65.5,12.4h-65.3v83.4h-53.7V314.2h118.9
		C1076.4,314.2,1098.3,318.3,1116.8,326.6z M1102.2,459.6c12.1-9.9,18.2-24.1,18.2-42.5c0-18.4-6.1-32.6-18.2-42.5
		c-12.1-9.9-29.9-14.9-53.3-14.9h-62.8v114.8h62.8C1072.3,474.4,1090.1,469.5,1102.2,459.6z"/>
	<path class="st5" d="M1287,588.2c-23.5-12.8-42-30.5-55.3-53.1c-13.4-22.6-20-48-20-76.4c0-28.4,6.7-53.8,20.2-76.4
		c13.5-22.6,32-40.3,55.5-53.1c23.5-12.8,49.9-19.2,79.1-19.2c23.7,0,45.3,4.1,64.8,12.4c19.5,8.3,36.1,20.2,49.6,35.9l-34.7,32.6
		c-20.9-22.6-46.7-33.9-77.2-33.9c-19.8,0-37.6,4.3-53.3,13c-15.7,8.7-27.9,20.7-36.8,36.1c-8.8,15.4-13.2,32.9-13.2,52.5
		c0,19.6,4.4,37,13.2,52.4c8.8,15.4,21.1,27.5,36.8,36.1c15.7,8.7,33.5,13,53.3,13c30.6,0,56.3-11.4,77.2-34.3l34.7,33
		c-13.5,15.7-30.1,27.7-49.8,35.9c-19.7,8.3-41.4,12.4-65,12.4C1336.9,607.4,1310.5,601,1287,588.2z"/>
	<path class="st5" d="M1863.3,558.3v45h-216.8V314.2h211v45h-157.4v75.2h139.6v44.2h-139.6v79.7H1863.3z"/>
	<path class="st5" d="M2180.1,314.2v289.1h-44.2l-159.4-195.8v195.8h-53.3V314.2h44.2l159.4,195.8V314.2H2180.1z"/>
	<path class="st5" d="M2251.7,596.5c-15.6-7.3-28.3-17.6-38.2-30.8l30.6-36.8c16,22,35.1,33,57.4,33c30,0,45-17.8,45-53.3V359.2
		h-102.8v-45h156.5v191.6c0,33.9-8.3,59.3-24.8,76.2c-16.5,16.9-40.8,25.4-72.7,25.4C2284.3,607.4,2267.3,603.8,2251.7,596.5z"/>
	<path class="st5" d="M2458.8,422.5c3.3-14.2,8.7-27.5,16.2-40c9.9-16.6,22.5-30.6,37.8-41.9 M2554.5,318.9
		c17.3-5.9,36-8.8,55.9-8.8c29.5,0,56,6.4,79.7,19.2c23.7,12.8,42.3,30.5,55.8,53.1c13.5,22.6,20.2,48.1,20.2,76.4
		c0,28.4-6.8,53.8-20.2,76.4c-13.5,22.6-32.1,40.3-55.8,53.1c-23.7,12.8-50.3,19.2-79.7,19.2c-29.5,0-56-6.4-79.7-19.2
		c-23.7-12.8-42.3-30.6-55.8-53.3c-11.3-19-17.8-39.8-19.7-62.5 M2549.1,376.1c3-2.1,6.1-4.1,9.3-6c15.4-8.7,32.8-13,52-13
		c19.3,0,36.6,4.3,52,13c15.4,8.7,27.5,20.8,36.3,36.3c8.8,15.6,13.2,33,13.2,52.2c0,19.3-4.4,36.7-13.2,52.2
		c-8.8,15.6-20.9,27.7-36.3,36.3c-15.4,8.7-32.8,13-52,13c-19.3,0-36.6-4.3-52-13c-15.4-8.7-27.5-20.8-36.3-36.3
		c-8.8-15.5-13.2-33-13.2-52.2c0-1.5,0.4-11.9,1.3-17.6"/>
	<path class="st5" d="M2935.4,501.3v102h-53.7V502.1l-113.6-187.9h57.4l84.7,140.8l85.5-140.8h52.9L2935.4,501.3z"/>
	<path class="st5" d="M3296.4,558.3v45h-216.8V314.2h211v45h-157.4v75.2h139.6v44.2h-139.6v79.7H3296.4z"/>
	<path class="st5" d="M3545.4,603.3l-59.1-84.7c-2.5,0.3-6.2,0.4-11.2,0.4H3410v84.2h-53.7V314.2h118.9c25.1,0,46.9,4.1,65.5,12.4
		c18.6,8.3,32.8,20.1,42.7,35.5c9.9,15.4,14.9,33.7,14.9,54.9c0,21.8-5.3,40.5-15.9,56.2c-10.6,15.7-25.8,27.4-45.6,35.1l66.5,95
		H3545.4z M3526,374.5c-12.1-9.9-29.9-14.9-53.3-14.9H3410v115.2h62.8c23.4,0,41.2-5,53.3-15.1c12.1-10,18.2-24.3,18.2-42.7
		C3544.2,398.6,3538.1,384.4,3526,374.5z"/>
</g>
<path class="st5" d="M2610.4,458.7"/>
<path class="st5" d="M2610.4,458.7"/>
<path class="st5" d="M2610.4,458.7"/>
<path class="st5" d="M2404.5,422.5"/>
<path class="st5" d="M2610.4,458.7"/>
<path class="st5" d="M496.9,270.8"/>
<path class="st5" d="M631.4,271.5"/>
<path class="st5" d="M535.7,283"/>
<path class="st5" d="M787,381.1c45.9,52.4,73.8,121.3,73.8,196.8c0,163.8-131.2,296.6-293.1,296.6c-161.9,0-293.1-132.8-293.1-296.6
	c0-75.2,27.7-143.9,73.3-196.2"/>
</svg>
