<?xml version="1.0" encoding="utf-8"?>
<!-- Generator: Adobe Illustrator 24.3.0, SVG Export Plug-In . SVG Version: 6.00 Build 0)  -->
<svg version="1.1" id="Слой_1" xmlns="http://www.w3.org/2000/svg" xmlns:xlink="http://www.w3.org/1999/xlink" x="0px" y="0px"
	 viewBox="0 0 750 750" style="enable-background:new 0 0 750 750;" xml:space="preserve">
<style type="text/css">
	.st0{fill:#000033;}
	.st1{fill:none;stroke:#3398FF;stroke-width:4;stroke-miterlimit:10;}
	.st2{fill:none;stroke:#FFFFFF;stroke-width:0.25;stroke-miterlimit:10;}
	.st3{fill:none;stroke:#FFFFFF;stroke-miterlimit:10;}
	.st4{fill:none;stroke:#3398FF;stroke-width:6;stroke-miterlimit:10;}
</style>
<rect y="0" class="st0" width="750" height="753"/>
<path class="st1" d="M344.9,231.9C344.9,231.9,344.9,231.9,344.9,231.9c-0.2,0-0.4,0.1-0.6,0.1"/>
<path class="st1" d="M231.2,279.4L231.2,279.4c-63.4,46.4-104.5,120.3-104.5,203.6c0,140.5,116.9,254.4,261.2,254.4
	S649,623.4,649,482.9c0-82.3-40.1-155.5-102.4-202"/>
<path class="st1" d="M436.5,232.9c-0.2,0-0.4-0.1-0.7-0.1"/>
<path class="st2" d="M220.2,482.1"/>
<path class="st2" d="M548.8,482.1"/>
<path class="st2" d="M127.4,482.1"/>
<path class="st2" d="M222.8,482.1"/>
<path class="st3" d="M649.8,483.4"/>
<path class="st3" d="M127.5,483.4"/>
<g>
	<path class="st1" d="M548.7,276.3c0,2.9-1,4.3-3.6,5.6c-39,20-80,34.3-123.9,39.6c-64.6,7.8-125.5-2.6-181.8-35.5
		c-9.1-5.3-9-5.4-9-15.6c0-24.9,0-49.8,0-74.7v-0.4c0-2,2.1-3.4,4-2.7c5.9,2.1,11.5,4,17.2,6.1c41.7,14.9,83.5,29.9,125.2,44.7
		c10.2,3.6,20.4,3.5,30.5-0.2c45.7-16.5,91.3-33.1,137-49.6c0.1,0,0.2-0.1,0.4-0.1c1.9-0.7,4,0.7,4,2.7l0,0
		C548.6,222.9,548.6,249.6,548.7,276.3z"/>
	<path class="st1" d="M688.6,136.3c-0.8-0.6-1.5-1.2-2.4-1.5c-4.4-1.8-8.8-3.7-13.2-5.5c-28.2-11.7-56.5-23.2-84.7-34.8
		c-62.4-25.6-124.9-51.3-187.3-77c-5.9-2.4-11.9-2.5-17.9-0.1c-23.5,9.5-47,19-70.4,28.5l-196.8,79.6c-8.3,3.4-16.7,6.7-24.9,10.2
		c-0.4,0.2-0.8,0.4-1.1,0.7c-1.2,1.2-1.2,3.1,0.1,4.2c0.3,0.3,0.7,0.6,1.1,0.8c2.7,1.2,5.5,2.3,8.4,3.1c2.8,0.8,3.5,2.3,3.5,5
		c-0.5,14.6-0.9,30.5-1.4,45l0.1,14.3c-0.2,0-0.4,0.1-0.5,0.1c-0.2,0-0.5,0-0.6,0.1c-5,0.3-9.9,1.2-14.7,2.9
		c-6.6,2.4-12.1,6.2-16.2,11.8c-4.3,6-5.7,12.7-5.4,19.9c0.2,5.3,1.6,10.3,4.6,14.8c3,4.5,7.1,7.8,11.8,10.5
		c5.6,3.2,11.7,5.5,18,7.2c0.6,0.2,0.8,0.4,0.8,1.1c0,15.4,0,30.8,0,46.2v0.9c-1.6-0.1-3.2-0.3-4.7-0.4c-4.7-0.6-9.1-2-13.1-4.5
		c-3.1-1.9-5.6-4.4-7.2-7.6c-0.4-0.8-0.4-1.4,0.2-2.1c3.8-4.7,4.8-10,3-15.6c-1.6-5.1-7.9-7.1-12.3-4.1c-2.1,1.4-3.3,3.4-4,5.8
		c-1.2,4.3-0.8,8.7,0.6,12.8c1.8,5.3,5.3,9.4,9.8,12.8c6.7,5.1,14.5,7.6,22.8,8.6c1.7,0.2,3.3,0.3,5,0.5v16.5h7.2v-0.8
		c0-5,0-10,0-15c0-0.4,0.1-0.7,0.6-0.7c3.1-0.4,6.2-0.7,9.2-1.3c5.9-1.2,11.4-3.3,16.3-6.6c5.9-4,10.2-9.2,12.3-16
		c1.5-5.1,1.7-10.3,1-15.5c-1-6.9-4.1-12.7-9.4-17.5c-4-3.5-8.7-6.1-13.6-8.3c-4.4-2-8.8-3.6-13.4-5c-0.6-0.2-0.8-0.4-0.8-1
		c0.1-1,0-2,0-3c0-11.1,0-22.1,0.1-33.2c0-1.3,0-2.7,0-4V216c0-0.2,0.5-0.5,0.7-0.5c0.1,0,0.1,0,0.2,0c2.5,0.4,5,0.6,7.5,1.2
		c4.1,0.9,7.7,2.6,10.8,5.4c0.4,0.3,0.4,0.6,0.2,1c-0.6,1.2-1.2,2.3-1.7,3.6c-1.5,3.9-1.7,7.9-0.1,11.8c1.5,3.8,5,5.6,9,4.9
		c3.3-0.6,5.2-2.7,6.1-5.7c1.4-4.8,0.7-9.4-1.8-13.8c-2.3-4-5.7-6.8-9.7-9.1c-5.5-3.1-11.6-4.6-17.9-5.3c-0.8-0.1-1.7-0.2-2.6-0.3
		c-0.3,0-0.5-0.1-0.8-0.1l0.1-14.5c-0.5-13.6-0.8-28.6-1.2-42.2v-0.6c-0.1-2.1,2-3.5,4-2.8c0.1,0.1,0.2,0.1,0.4,0.1
		c40.4,14.4,80.8,28.9,121.2,43.3c49.1,17.5,98.2,35.1,147.3,52.6c7.8,2.8,15.2,2.7,23-0.1c47.5-17.2,94.9-34.5,142.4-51.7h0
		c46.7-16.9,93.3-33.8,140-50.8c1-0.4,1.8-0.9,2.7-1.6C690,139.7,690.1,137.5,688.6,136.3z M93.6,255.5c-2.7-1.3-5.2-2.9-7.3-5.1
		c-2.7-2.8-4.2-6.2-4.7-9.9c-0.5-4.2-0.2-8.4,1.3-12.4c2.3-5.8,6.6-9.4,12.5-11.3c1.7-0.6,3.5-0.9,5.3-1.4c0.2,0,0.6,42.9,0.6,42.9
		S96.1,256.7,93.6,255.5z M109.3,279c4.1,1.3,7.9,3.1,11.3,5.7c4.9,3.8,7.4,8.8,7.8,14.9c0.3,4.2-0.3,8.3-2.2,12.2
		c-3.2,6.2-8.4,10-15.3,11.7c-1.4,0.3-2.8,0.5-4.4,0.8v-46.1C107.5,278.4,108.4,278.7,109.3,279z"/>
</g>
<g>
	<path class="st1" d="M417.2,51.1c-0.1,0.4-0.3,0.7-0.4,1.1C409.9,66.8,403,81.4,396.2,96c-0.2,0.4-0.4,0.9-0.6,1.5
		c1.3-0.1,2.3-0.1,3.4-0.2c3.1-0.3,6.3-0.5,9.4-0.8c0.6,0,1.2-0.2,1.7-0.1c0.5,0,1.1,0.1,1.5,0.4c0.8,0.4,1,1.3,0.6,2.1
		c-0.2,0.3-0.4,0.6-0.6,0.9c-7,10.8-14,21.7-21.1,32.5c-0.2,0.2-0.3,0.5-0.5,0.7c-0.4,0.7-0.2,1.1,0.6,1c1.6-0.1,3.2-0.2,4.9-0.4
		c3.2-0.3,6.4-0.5,9.6-0.8c0.1,0,0.1,0,0.2,0c0.9-0.1,1.7,0.1,2.1,1c0.4,0.8,0,1.5-0.5,2.1c-7.9,9.7-15.8,19.4-23.6,29.1
		c-7.6,9.3-15.2,18.7-22.8,28c-0.2,0.3-0.4,0.6-0.7,0.8c-0.2,0.1-0.6,0.2-0.9,0.1c-0.4-0.1-0.4-0.5-0.2-0.8c0.1-0.3,0.2-0.5,0.4-0.8
		c7.8-15.9,15.7-31.7,23.5-47.6c0.2-0.4,0.3-0.7,0.6-1.2c-0.5,0-0.9,0-1.2,0c-3.8,0.3-7.6,0.6-11.5,1c-0.9,0.1-1.8,0.2-2.7,0.2
		c-0.5,0-1.1-0.2-1.6-0.5c-0.6-0.4-0.8-1.1-0.5-1.8c0.2-0.3,0.4-0.7,0.6-1c6.5-9.8,13-19.7,19.4-29.5c0.1-0.2,0.3-0.3,0.3-0.5
		c0.1-0.3,0.3-0.7,0.2-0.9c-0.2-0.2-0.6-0.3-1-0.3c-1,0-2.1,0.2-3.1,0.3c-3.2,0.3-6.4,0.5-9.6,0.8c-0.2,0-0.4,0-0.6,0
		c-0.7,0-1.3-0.3-1.7-1c-0.4-0.7-0.2-1.3,0.3-1.9c2.3-3,4.7-5.9,7-8.9c12.6-16,25.2-32.1,37.7-48.1c0.2-0.3,0.5-0.6,0.8-0.9
		c0.2-0.1,0.6-0.2,0.8-0.1C417.1,50.5,417.2,50.9,417.2,51.1z"/>
</g>
<path class="st4" d="M504.8,367.4c29.8,29.2,48.3,69.5,48.3,114c0,89.3-74.3,161.7-165.9,161.7s-165.9-72.4-165.9-161.7
	c0-44.4,18.5-84.8,48.3-114"/>
<line class="st4" x1="336.9" y1="343.6" x2="336.9" y2="523.8"/>
<line class="st4" x1="440.3" y1="342.3" x2="440.3" y2="525.1"/>
</svg>
