<?xml version="1.0" encoding="utf-8"?>
<!-- Generator: Adobe Illustrator 24.3.0, SVG Export Plug-In . SVG Version: 6.00 Build 0)  -->
<svg version="1.1" id="Слой_1" xmlns="http://www.w3.org/2000/svg" xmlns:xlink="http://www.w3.org/1999/xlink" x="0px" y="0px"
	 viewBox="0 0 2200 737" style="enable-background:new 0 0 2200 737;" xml:space="preserve">
<style type="text/css">
	.st0{fill:#000033;}
	.st1{fill:#3398FF;stroke:#FFFFFF;stroke-width:2;stroke-miterlimit:10;}
	.st2{fill:none;stroke:#FFFFFF;stroke-width:0.25;stroke-miterlimit:10;}
	.st3{fill:#FFFFFF;stroke:#000000;stroke-miterlimit:10;}
	.st4{fill:none;}
	.st5{fill:none;stroke:#FFFFFF;stroke-miterlimit:10;}
	.st6{fill:#3398FF;stroke:#FFFFFF;stroke-width:10;stroke-miterlimit:10;}
	.st7{fill:#3398FF;stroke:#FFFFFF;stroke-width:8;stroke-miterlimit:10;}
	.st8{fill:#3398FF;stroke:#FFFFFF;stroke-width:4;stroke-miterlimit:10;}
	.st9{fill:none;stroke:#FFFFFF;stroke-width:2.5;stroke-miterlimit:10;}
	.st10{fill:#FBED21;stroke:#FFFFFF;stroke-width:0.75;stroke-miterlimit:10;}
	.st11{fill:none;stroke:#FFFFFF;stroke-width:5;stroke-miterlimit:10;}
	.st12{enable-background:new    ;}
	.st13{fill:#3398FF;}
	.st14{fill:none;stroke:#FFFFFF;stroke-width:4;stroke-miterlimit:10;}
</style>
<rect x="0.39" class="st0" width="2199.6101074" height="736.789978"/>
<path class="st1" d="M352.9200134,109.9100037c-71.7600098,0-129.9299927,56.6699982-129.9299927,126.5800018
	s58.1700134,126.5800018,129.9299927,126.5800018s129.9299927-56.6699829,129.9299927-126.5800018
	S424.6799927,109.9100037,352.9200134,109.9100037z"/>
<path class="st2" d="M269.480011,236.0599976"/>
<path class="st2" d="M432.980011,236.0599976"/>
<path class="st3" d="M543.7399902,105.5199966"/>
<path class="st3" d="M497.5899963,105.5199966"/>
<path class="st2" d="M223.3300018,236.0599976"/>
<path class="st2" d="M270.7999878,236.0599976"/>
<line class="st4" x1="356.6799927" y1="423.2900085" x2="371.5700073" y2="419.3399963"/>
<path class="st1" d="M420.8699951,721.2800293H285.7200012c-14.980011,0-27.1300049-12.1500244-27.1300049-27.1300049V396.3599854
	c0-14.980011,12.1499939-27.1300049,27.1300049-27.1300049h135.1499939c14.980011,0,27.1300049,12.1499939,27.1300049,27.1300049
	v297.7900391C448,709.1400146,435.8599854,721.2800293,420.8699951,721.2800293z"/>
<path class="st5" d="M483.230011,236.7200012"/>
<path class="st5" d="M223.3699951,236.7200012"/>
<g>
	<path class="st6" d="M312.0299988,398.4100037c-73.9299927-44.0799866-193.6600037-56.1900024-253.9100037-59.5299988
		c-20.25-1.1199951-37.1300011,13.9100037-37.1300011,32.8800049v270.4400024
		c0,17.4000244,14.4399986,31.9000244,33.0099983,32.8400269c54.4000015,2.7800293,164.4499817,12.9500122,240.519989,50.2800293
		c11.6799927,5.7299805,25.519989-2.0800171,25.519989-14.4099731V412.3200073
		C320.019989,406.6499939,317.1400146,401.4599915,312.0299988,398.4100037z"/>
</g>
<g>
	<path class="st7" d="M647.4500122,338.8800049c-60.2399902,3.3299866-179.9899902,15.4500122-253.8999939,59.5400085
		c-5.1099854,3.0499878-7.9899902,8.4500122-7.9899902,14.1199951v298.3399963
		c0,12.3699951,13.8800049,20.1900024,25.5899963,14.4400024c76.0499878-37.289978,186.039978-47.4700317,240.4299927-50.25
		c18.5599976-0.9500122,33-15.4500122,33-32.8499756v-270.460022
		C684.5800171,352.7900085,667.6900024,337.769989,647.4500122,338.8800049z"/>
</g>
<path class="st8" d="M370.019989,731.8200073h-33.2799988c-2.7600098,0-5-2.2399902-5-5V404.3099976c0-2.7600098,2.2399902-5,5-5
	h33.2799988c2.7600098,0,5,2.2399902,5,5v322.5100098C375.019989,729.5800171,372.7799988,731.8200073,370.019989,731.8200073z"/>
<line class="st9" x1="331.7999878" y1="475.9500122" x2="372.7999878" y2="475.9500122"/>
<line class="st9" x1="330.6199951" y1="484.1900024" x2="372.7999878" y2="484.1900024"/>
<g>
	<path class="st1" d="M432.9500122,133.6799927c0.0100098,1.4499969-0.519989,2.1300049-1.7799988,2.7700043
		c-19.4200134,9.9300079-39.8099976,17.0699921-61.6499939,19.6999969
		c-32.1300049,3.8800049-62.4599915-1.3099976-90.4500122-17.6600037c-4.5299988-2.6499939-4.5-2.6900024-4.5-7.7799988
		c0-12.3899994,0.0100098-24.7700043,0.0100098-37.1600037v-0.1800003c0-1,1.019989-1.6999969,1.9899902-1.3600006
		c2.9299927,1.0299988,5.7399902,2.0100021,8.5400085,3.0199966c20.769989,7.4199982,41.5299988,14.8600006,62.2999878,22.25
		c5.0499878,1.8000031,10.1300049,1.7300034,15.1799927-0.0899963
		c22.7200012-8.2299957,45.4299927-16.4599991,68.1499939-24.6900024c0.0599976-0.0199966,0.1199951-0.0400009,0.1799927-0.0599976
		c0.9700012-0.3399963,1.9899902,0.3600006,1.9899902,1.3600006l0,0
		C432.9100037,107.0899963,432.8800049,120.3899994,432.9500122,133.6799927z"/>
	<path class="st1" d="M502.5400085,64.0299988c-0.3800049-0.2999992-0.769989-0.5800018-1.2000122-0.75
		c-2.1900024-0.9099998-4.3900146-1.8199997-6.5799866-2.7299995C480.710022,54.75,466.6600037,49,452.6000061,43.2200012
		C421.5400085,30.460001,390.460022,17.6900005,359.4000244,4.9300003c-2.9599915-1.21-5.9299927-1.25-8.9100037-0.0500002
		c-11.6799927,4.7200003-23.3600159,9.4499998-35.0499878,14.1699991l-97.9100037,39.5999985
		c-4.1399994,1.6699982-8.3000031,3.3400002-12.4100037,5.079998c-0.1999969,0.0800018-0.3800049,0.2099991-0.5500031,0.3700027
		c-0.6100006,0.5800018-0.6000061,1.5400009,0.0299988,2.0999985c0.1600037,0.1600037,0.3500061,0.2900009,0.5500031,0.3799973
		c1.3399963,0.6200027,2.7599945,1.1299973,4.1999969,1.5199966c1.4100037,0.3799973,1.7599945,1.1299973,1.7200012,2.5100021
		c-0.2400055,7.2399979-0.4600067,15.1500015-0.6799927,22.4000015l0.0299988,7.1299973
		c-0.0899963,0.0100021-0.1900024,0.0299988-0.2700043,0.0299988c-0.1199951,0.0100021-0.2299957,0.0100021-0.3200073,0.0299988
		c-2.5,0.1699982-4.9499969,0.6100006-7.3099976,1.4599991c-3.2799988,1.1999969-6.0200043,3.0699997-8.0399933,5.8700027
		c-2.1199951,2.9899979-2.8200073,6.340004-2.6699982,9.9199982c0.0899963,2.6399994,0.8000031,5.1200027,2.3000031,7.340004
		c1.4900055,2.2399979,3.5299988,3.8899994,5.8600006,5.2299957c2.8000031,1.6100006,5.8200073,2.7200012,8.9499969,3.6000061
		c0.3099976,0.0800018,0.4199982,0.1799927,0.4199982,0.5299988c-0.0099945,7.6600037-0.0099945,15.3099976-0.0099945,22.9700012
		v0.4600067c-0.8099976-0.0700073-1.6000061-0.1300049-2.3500061-0.2200012
		c-2.3300018-0.3200073-4.5299988-0.9799957-6.5200043-2.2200012c-1.5599976-0.9499969-2.7899933-2.1900024-3.6000061-3.8000031
		c-0.2200012-0.4199982-0.1799927-0.6900024,0.1100006-1.0399933c1.8699951-2.3300018,2.3800049-4.9600067,1.4900055-7.75
		c-0.8099976-2.5599976-3.9199982-3.5500031-6.1399994-2.0200043c-1.0200043,0.7100067-1.6499939,1.6999969-1.9900055,2.8699951
		c-0.6100006,2.1499939-0.4100037,4.3099976,0.3000031,6.3899994c0.8800049,2.6499939,2.6300049,4.6900024,4.8600006,6.3800049
		c3.3300018,2.5399933,7.1999969,3.7799988,11.3600006,4.3000031c0.8300018,0.1100006,1.6499939,0.1600037,2.5,0.25v8.2299957
		h3.5700073v-0.3999939c0-2.4799957,0.0099945-4.9600067,0-7.4400024c0-0.2200012,0.0399933-0.3300018,0.3099976-0.3699951
		c1.5299988-0.2100067,3.0599976-0.3699951,4.5599976-0.6699982c2.9199982-0.5899963,5.6600037-1.6199951,8.1199951-3.2700043
		c2.9600067-1.9900055,5.0899963-4.6000061,6.1199951-7.9600067c0.7599945-2.5299988,0.8699951-5.1199951,0.4900055-7.7100067
		c-0.4900055-3.4299927-2.0200043-6.3399963-4.6699982-8.6900024c-2-1.75-4.3300018-3.0299988-6.7700043-4.1399994
		c-2.1699982-0.9800034-4.3999939-1.7799988-6.6699982-2.4700012c-0.3099976-0.0899963-0.4100037-0.2200012-0.3800049-0.5100021
		c0.0299988-0.5,0.0099945-1,0.0099945-1.5c0.0099945-5.5100021,0.0099945-11.0199966,0.0299988-16.5299988
		c0-0.6600037,0-1.3300018,0.0099945-1.9899979v-1.6399994c0-0.0899963,0.0099945-0.1600037,0.0299988-0.2600021
		c0.1199951,0,0.1999969-0.0100021,0.3000031,0.0100021c0.0299988,0,0.0700073,0.0100021,0.1100006,0.0100021
		c1.2299957,0.1800003,2.4900055,0.3199997,3.7100067,0.5800018c2.0200043,0.4499969,3.8399963,1.2900009,5.3899994,2.6900024
		c0.1799927,0.1699982,0.1900024,0.2900009,0.0800018,0.5100021c-0.3099976,0.5800018-0.6199951,1.1600037-0.8399963,1.7699966
		c-0.7299957,1.9499969-0.8399963,3.9199982-0.0399933,5.8700027c0.7599945,1.8700027,2.4799957,2.8099976,4.4900055,2.4400024
		c1.6499939-0.3000031,2.6100006-1.3600006,3.0500031-2.8499985c0.6999969-2.3899994,0.3500061-4.6900024-0.8899994-6.8600006
		c-1.1199951-1.9800034-2.8600006-3.3899994-4.8500061-4.5199966c-2.7599945-1.5599976-5.7799988-2.2799988-8.9199982-2.6500015
		c-0.4199982-0.0699997-0.8500061-0.1100006-1.2700043-0.1299973c-0.1399994-0.0100021-0.2700043-0.0299988-0.3899994-0.0400009
		L214.0900269,93c-0.2299957-6.7600021-0.3899994-14.2099991-0.6000061-20.9899979v-0.2799988
		c-0.0299988-1.0199966,1-1.7399979,1.9900055-1.4000015c0.0500031,0.0299988,0.1199951,0.0400009,0.1799927,0.0699997
		c20.1000061,7.1699982,40.2100067,14.3600006,60.3100128,21.5299988
		c24.4299927,8.7200012,48.8599854,17.4400024,73.269989,26.1900024c3.8800049,1.4000015,7.5799866,1.3600006,11.4599915-0.0500031
		c23.6199951-8.5800018,47.230011-17.1500015,70.8500061-25.7099991h0.0100098
		c23.2399902-8.4300003,46.4200134-16.8399963,69.6300049-25.2799988c0.4899902-0.1800003,0.9100037-0.4700012,1.3299866-0.8000031
		C503.230011,65.6999969,503.269989,64.6100006,502.5400085,64.0299988z M210.3899994,124.7300034
		c-1.3500061-0.3700027-2.6499939-0.8000031-3.8999939-1.4000015c-1.3500061-0.6500015-2.6100006-1.4199982-3.6399994-2.5199966
		c-1.3300018-1.4000015-2.0800018-3.0599976-2.3300018-4.9400024c-0.2700043-2.1100006-0.1199951-4.1900024,0.6499939-6.1800003
		c1.1399994-2.8700027,3.3000031-4.6800003,6.2400055-5.6299973c0.8500061-0.2799988,1.75-0.4599991,2.6499939-0.6900024
		c0.1100006-0.0100021,0.2200012-0.0400009,0.3200073-0.0699997v21.4300003H210.3899994z M214.3099976,135.0200043
		c2.0299988,0.6699982,3.9400024,1.5299988,5.6000061,2.8500061c2.4199982,1.9100037,3.6799927,4.3800049,3.8699951,7.3999939
		c0.1399994,2.1100006-0.1399994,4.1499939-1.1100006,6.0500031c-1.5800018,3.1000061-4.1799927,5-7.5899963,5.8300018
		c-0.6900024,0.1699982-1.4100037,0.25-2.1699982,0.3800049v-22.9300079
		C213.4100037,134.75,213.8699951,134.8699951,214.3099976,135.0200043z"/>
</g>
<g>
	<path class="st10" d="M367.5,21.6499996c-0.0299988,0.1800003-0.1400146,0.3600006-0.2200012,0.5300007
		c-3.3999939,7.2700005-6.8099976,14.5400009-10.2099915,21.7999992c-0.1000061,0.2200012-0.1900024,0.4399986-0.3200073,0.7400017
		c0.6300049-0.0400009,1.1600037-0.0699997,1.6900024-0.1199989c1.5599976-0.1300011,3.1199951-0.2599983,4.6799927-0.3899994
		c0.2900085-0.0200005,0.5799866-0.0900002,0.8599854-0.0699997c0.2600098,0.0200005,0.5499878,0.0600014,0.769989,0.1800003
		c0.3999939,0.2200012,0.4899902,0.6399994,0.2799988,1.0499992c-0.0799866,0.1599998-0.1900024,0.2999992-0.2799988,0.4500008
		c-3.5,5.3899994-6.9899902,10.7900009-10.5,16.1800003c-0.0799866,0.1199989-0.1600037,0.2400017-0.230011,0.3600006
		c-0.2000122,0.3600006-0.1099854,0.5400009,0.3200073,0.5099983c0.8099976-0.0499992,1.6099854-0.1199989,2.4200134-0.1800003
		c1.6000061-0.1300011,3.1900024-0.2599983,4.7799988-0.3899994c0.0400085,0,0.0700073,0,0.1099854,0
		c0.4400024-0.0299988,0.8299866,0.0699997,1.0499878,0.4799995c0.2099915,0.4099998,0.0100098,0.7299995-0.25,1.0499992
		c-3.9200134,4.8199997-7.8399963,9.6500015-11.7600098,14.4799957c-3.769989,4.6500015-7.5499878,9.3000031-11.3200073,13.9400024
		c-0.1199951,0.1399994-0.2099915,0.3000031-0.3500061,0.3899994c-0.1099854,0.0699997-0.2999878,0.0999985-0.4299927,0.0699997
		c-0.1799927-0.0599976-0.1900024-0.2399979-0.1000061-0.4000015c0.0599976-0.1299973,0.1199951-0.2600021,0.1799927-0.3799973
		c3.8999939-7.8899994,7.7999878-15.7900009,11.6900024-23.6800003c0.0899963-0.1800003,0.1700134-0.3700027,0.2900085-0.6200027
		c-0.25,0-0.4299927-0.0100021-0.6000061,0c-1.8999939,0.1600037-3.7999878,0.3199997-5.7000122,0.4800034
		c-0.4500122,0.0400009-0.8900146,0.1100006-1.3399963,0.0999985c-0.269989-0.0100021-0.5700073-0.0999985-0.7999878-0.2399979
		c-0.3099976-0.1800003-0.3800049-0.5599976-0.2399902-0.8899994c0.0799866-0.1699982,0.1900024-0.3399963,0.2900085-0.5
		c3.2200012-4.9000015,6.4500122-9.7900009,9.6700134-14.7000008c0.0599976-0.0900002,0.1400146-0.1699982,0.1700134-0.2700005
		c0.0499878-0.1500015,0.1499939-0.3699989,0.0899963-0.4599991c-0.0799866-0.0999985-0.3200073-0.1399994-0.480011-0.1300011
		c-0.519989,0.0200005-1.0400085,0.0800018-1.5599976,0.1300011c-1.5899963,0.1300011-3.1900024,0.2599983-4.7799988,0.3899994
		c-0.1099854,0.0099983-0.2200012,0.0099983-0.3200073,0.0099983c-0.3699951,0-0.6600037-0.1599998-0.8299866-0.4799995
		c-0.1799927-0.3400002-0.0899963-0.6399994,0.1400146-0.9300003c1.1600037-1.4799995,2.3200073-2.9500008,3.480011-4.4300003
		c6.2600098-7.9799995,12.519989-15.9700012,18.769989-23.9500008c0.1199951-0.1499996,0.230011-0.3199997,0.3800049-0.4400005
		c0.0899963-0.0699997,0.2900085-0.0900002,0.3800049-0.0300007C367.4700012,21.3500004,367.5299988,21.5400009,367.5,21.6499996z"
		/>
</g>
<path class="st11" d="M411.1000061,179.0299988c14.8299866,14.5299988,24.0100098,34.5899963,24.0100098,56.6999969
	c0,44.4199982-36.9599915,80.4300079-82.5599976,80.4300079s-82.5599976-36.0100098-82.5599976-80.4299927
	c0-22.1100006,9.1799927-42.1699982,24.0100098-56.6999969"/>
<line class="st11" x1="327.5799866" y1="167.1600037" x2="327.5799866" y2="256.8299866"/>
<line class="st11" x1="379.0100098" y1="166.5099945" x2="379.0100098" y2="257.480011"/>
<rect x="646.8900146" class="st4" width="2048.3100586" height="725.789978"/>
<g class="st12">
	<path class="st13" d="M828.1503906,339.887207c9.9897461,4.4404297,17.6489258,10.8056641,22.9765625,19.0917969
		c5.328125,8.2910156,7.9921875,18.1313477,7.9921875,29.5258789c0,11.2490234-2.6640625,21.0556641-7.9921875,29.4150391
		c-5.3276367,8.3632812-12.9868164,14.7626953-22.9765625,19.203125
		c-9.9902344,4.4394531-21.7216797,6.6601562-35.1870117,6.6601562H757.887207v44.84375h-28.8598633V333.2270508h63.9360352
		C806.4287109,333.2270508,818.1601562,335.4477539,828.1503906,339.887207z M820.269043,411.3710938
		c6.5107422-5.328125,9.7680664-12.9492188,9.7680664-22.8662109c0-9.9140625-3.2573242-17.5380859-9.7680664-22.8657227
		c-6.5141602-5.328125-16.0600586-7.9921875-28.6376953-7.9921875H757.887207v61.7163086h33.7441406
		C804.2089844,419.3632812,813.7548828,416.6992188,820.269043,411.3710938z"/>
	<path class="st13" d="M919.6137695,480.5244141c-12.6542969-6.8828125-22.5712891-16.390625-29.7480469-28.5273438
		c-7.1806641-12.1337891-10.7670898-25.8251953-10.7670898-41.0703125c0-15.2412109,3.625-28.9326172,10.8779297-41.0693359
		c7.2495117-12.1333008,17.2050781-21.6450195,29.8588867-28.5268555
		c12.6542969-6.8818359,26.8237305-10.3232422,42.5131836-10.3232422c12.7265625,0,24.34375,2.2197266,34.8540039,6.6601562
		c10.5068359,4.4404297,19.3867188,10.8779297,26.6401367,19.3134766l-18.6484375,17.5375977
		c-11.2490234-12.1323242-25.0859375-18.2026367-41.5136719-18.2026367c-10.65625,0-20.2021484,2.3300781-28.6381836,6.9921875
		s-15.0229492,11.1381836-19.7578125,19.425293c-4.7382812,8.2900391-7.1040039,17.6865234-7.1040039,28.1933594
		c0,10.5107422,2.3657227,19.9072266,7.1040039,28.1943359c4.7348633,8.2900391,11.3217773,14.7626953,19.7578125,19.4248047
		s17.9819336,6.9931641,28.6381836,6.9931641c16.4277344,0,30.2646484-6.1396484,41.5136719-18.4257812l18.6484375,17.7597656
		c-7.253418,8.4355469-16.1713867,14.8740234-26.7509766,19.3134766
		c-10.5834961,4.4404297-22.2382812,6.6601562-34.965332,6.6601562
		C946.4375,490.8466797,932.2675781,487.40625,919.6137695,480.5244141z"/>
	<path class="st13" d="M1229.4091797,464.4287109v24.1982422H1112.859375V333.2270508h113.4423828v24.1982422h-84.5820312
		v40.4038086h75.0361328v23.7539062h-75.0361328v42.8457031H1229.4091797z"/>
	<path class="st13" d="M1399.6826172,333.2270508v155.3999023h-23.7539062l-85.6923828-105.2275391v105.2275391h-28.6376953
		V333.2270508h23.7539062l85.6923828,105.2280273V333.2270508H1399.6826172z"/>
	<path class="st13" d="M1438.1992188,484.9638672c-8.3632812-3.9199219-15.2070312-9.4345703-20.5351562-16.5390625
		l16.4287109-19.7578125c8.5810547,11.8417969,18.8701172,17.7597656,30.8574219,17.7597656
		c16.1298828,0,24.1982422-9.5458984,24.1982422-28.6376953V357.425293h-55.2783203v-24.1982422h84.1386719v103.0083008
		c0,18.203125-4.4404297,31.8564453-13.3203125,40.9589844c-8.8798828,9.1015625-21.9052734,13.6523438-39.0722656,13.6523438
		C1455.6992188,490.8466797,1446.5595703,488.8837891,1438.1992188,484.9638672z"/>
	<path class="st13" d="M1588.1591797,480.5244141c-12.7304688-6.8828125-22.7207031-16.4287109-29.9707031-28.6386719
		c-7.2529297-12.2099609-10.8779297-25.8623047-10.8779297-40.9589844c0-15.0957031,3.625-28.7490234,10.8779297-40.9589844
		c7.25-12.2094727,17.2402344-21.7553711,29.9707031-28.637207c12.7265625-6.8818359,27.0078125-10.3232422,42.8457031-10.3232422
		c15.8349609,0,30.1162109,3.4414062,42.8457031,10.3232422c12.7275391,6.8818359,22.7167969,16.3935547,29.9707031,28.5268555
		c7.2490234,12.1367188,10.8779297,25.828125,10.8779297,41.0693359c0,15.2451172-3.6289062,28.9365234-10.8779297,41.0703125
		c-7.2539062,12.1367188-17.2431641,21.6445312-29.9707031,28.5273438
		c-12.7294922,6.8818359-27.0107422,10.3222656-42.8457031,10.3222656
		C1615.1669922,490.8466797,1600.8857422,487.40625,1588.1591797,480.5244141z M1658.9765625,458.5458984
		c8.2871094-4.6621094,14.7978516-11.1728516,19.5361328-19.5361328c4.7353516-8.359375,7.1044922-17.7216797,7.1044922-28.0830078
		c0-10.3574219-2.3691406-19.7197266-7.1044922-28.0830078c-4.7382812-8.359375-11.2490234-14.8735352-19.5361328-19.5356445
		c-8.2900391-4.6621094-17.6142578-6.9921875-27.9716797-6.9921875c-10.3613281,0-19.6855469,2.3300781-27.9716797,6.9921875
		c-8.2910156,4.6621094-14.8017578,11.1762695-19.5361328,19.5356445
		c-4.7382812,8.3632812-7.1044922,17.7255859-7.1044922,28.0830078c0,10.3613281,2.3662109,19.7236328,7.1044922,28.0830078
		c4.734375,8.3632812,11.2451172,14.8740234,19.5361328,19.5361328c8.2861328,4.6621094,17.6103516,6.9931641,27.9716797,6.9931641
		C1641.3623047,465.5390625,1650.6865234,463.2080078,1658.9765625,458.5458984z"/>
	<path class="st13" d="M1805.71875,433.7929688v54.8339844h-28.8603516v-54.3896484l-61.0498047-101.0102539h30.8583984
		l45.5097656,75.7016602l45.9541016-75.7016602h28.4160156L1805.71875,433.7929688z"/>
	<path class="st13" d="M1999.7460938,464.4287109v24.1982422h-116.5498047V333.2270508h113.4414062v24.1982422h-84.5820312
		v40.4038086h75.0361328v23.7539062h-75.0361328v42.8457031H1999.7460938z"/>
	<path class="st13" d="M2133.6123047,488.6269531l-31.7460938-45.5097656
		c-1.3320312,0.1484375-3.3300781,0.2216797-5.9941406,0.2216797h-35.0761719v45.2880859h-28.859375V333.2270508h63.9355469
		c13.4658203,0,25.1972656,2.2207031,35.1875,6.6601562c9.9902344,4.4404297,17.6484375,10.8056641,22.9765625,19.0917969
		c5.328125,8.2910156,7.9921875,18.1313477,7.9921875,29.5258789c0,11.6933594-2.8515625,21.7558594-8.546875,30.1923828
		c-5.6992188,8.4355469-13.875,14.7275391-24.53125,18.8701172l35.7421875,51.0595703H2133.6123047z M2123.1787109,365.6391602
		c-6.5146484-5.328125-16.0605469-7.9921875-28.6386719-7.9921875h-33.7441406v61.9379883h33.7441406
		c12.578125,0,22.1240234-2.6982422,28.6386719-8.1025391c6.5107422-5.4013672,9.7675781-13.0605469,9.7675781-22.9775391
		C2132.9462891,378.5908203,2129.6894531,370.9667969,2123.1787109,365.6391602z"/>
</g>
<g class="st12">
	<path class="st14" d="M828.1503906,339.887207c9.9897461,4.4404297,17.6489258,10.8056641,22.9765625,19.0917969
		c5.328125,8.2910156,7.9921875,18.1313477,7.9921875,29.5258789c0,11.2490234-2.6640625,21.0556641-7.9921875,29.4150391
		c-5.3276367,8.3632812-12.9868164,14.7626953-22.9765625,19.203125
		c-9.9902344,4.4394531-21.7216797,6.6601562-35.1870117,6.6601562H757.887207v44.84375h-28.8598633V333.2270508h63.9360352
		C806.4287109,333.2270508,818.1601562,335.4477539,828.1503906,339.887207z M820.269043,411.3710938
		c6.5107422-5.328125,9.7680664-12.9492188,9.7680664-22.8662109c0-9.9140625-3.2573242-17.5380859-9.7680664-22.8657227
		c-6.5141602-5.328125-16.0600586-7.9921875-28.6376953-7.9921875H757.887207v61.7163086h33.7441406
		C804.2089844,419.3632812,813.7548828,416.6992188,820.269043,411.3710938z"/>
	<path class="st14" d="M919.6137695,480.5244141c-12.6542969-6.8828125-22.5712891-16.390625-29.7480469-28.5273438
		c-7.1806641-12.1337891-10.7670898-25.8251953-10.7670898-41.0703125c0-15.2412109,3.625-28.9326172,10.8779297-41.0693359
		c7.2495117-12.1333008,17.2050781-21.6450195,29.8588867-28.5268555
		c12.6542969-6.8818359,26.8237305-10.3232422,42.5131836-10.3232422c12.7265625,0,24.34375,2.2197266,34.8540039,6.6601562
		c10.5068359,4.4404297,19.3867188,10.8779297,26.6401367,19.3134766l-18.6484375,17.5375977
		c-11.2490234-12.1323242-25.0859375-18.2026367-41.5136719-18.2026367c-10.65625,0-20.2021484,2.3300781-28.6381836,6.9921875
		s-15.0229492,11.1381836-19.7578125,19.425293c-4.7382812,8.2900391-7.1040039,17.6865234-7.1040039,28.1933594
		c0,10.5107422,2.3657227,19.9072266,7.1040039,28.1943359c4.7348633,8.2900391,11.3217773,14.7626953,19.7578125,19.4248047
		s17.9819336,6.9931641,28.6381836,6.9931641c16.4277344,0,30.2646484-6.1396484,41.5136719-18.4257812l18.6484375,17.7597656
		c-7.253418,8.4355469-16.1713867,14.8740234-26.7509766,19.3134766
		c-10.5834961,4.4404297-22.2382812,6.6601562-34.965332,6.6601562
		C946.4375,490.8466797,932.2675781,487.40625,919.6137695,480.5244141z"/>
	<path class="st14" d="M1229.4091797,464.4287109v24.1982422H1112.859375V333.2270508h113.4423828v24.1982422h-84.5820312
		v40.4038086h75.0361328v23.7539062h-75.0361328v42.8457031H1229.4091797z"/>
	<path class="st14" d="M1399.6826172,333.2270508v155.3999023h-23.7539062l-85.6923828-105.2275391v105.2275391h-28.6376953
		V333.2270508h23.7539062l85.6923828,105.2280273V333.2270508H1399.6826172z"/>
	<path class="st14" d="M1438.1992188,484.9638672c-8.3632812-3.9199219-15.2070312-9.4345703-20.5351562-16.5390625
		l16.4287109-19.7578125c8.5810547,11.8417969,18.8701172,17.7597656,30.8574219,17.7597656
		c16.1298828,0,24.1982422-9.5458984,24.1982422-28.6376953V357.425293h-55.2783203v-24.1982422h84.1386719v103.0083008
		c0,18.203125-4.4404297,31.8564453-13.3203125,40.9589844c-8.8798828,9.1015625-21.9052734,13.6523438-39.0722656,13.6523438
		C1455.6992188,490.8466797,1446.5595703,488.8837891,1438.1992188,484.9638672z"/>
	<path class="st14" d="M1588.1591797,480.5244141c-12.7304688-6.8828125-22.7207031-16.4287109-29.9707031-28.6386719
		c-7.2529297-12.2099609-10.8779297-25.8623047-10.8779297-40.9589844c0-15.0957031,3.625-28.7490234,10.8779297-40.9589844
		c7.25-12.2094727,17.2402344-21.7553711,29.9707031-28.637207c12.7265625-6.8818359,27.0078125-10.3232422,42.8457031-10.3232422
		c15.8349609,0,30.1162109,3.4414062,42.8457031,10.3232422c12.7275391,6.8818359,22.7167969,16.3935547,29.9707031,28.5268555
		c7.2490234,12.1367188,10.8779297,25.828125,10.8779297,41.0693359c0,15.2451172-3.6289062,28.9365234-10.8779297,41.0703125
		c-7.2539062,12.1367188-17.2431641,21.6445312-29.9707031,28.5273438
		c-12.7294922,6.8818359-27.0107422,10.3222656-42.8457031,10.3222656
		C1615.1669922,490.8466797,1600.8857422,487.40625,1588.1591797,480.5244141z M1658.9765625,458.5458984
		c8.2871094-4.6621094,14.7978516-11.1728516,19.5361328-19.5361328c4.7353516-8.359375,7.1044922-17.7216797,7.1044922-28.0830078
		c0-10.3574219-2.3691406-19.7197266-7.1044922-28.0830078c-4.7382812-8.359375-11.2490234-14.8735352-19.5361328-19.5356445
		c-8.2900391-4.6621094-17.6142578-6.9921875-27.9716797-6.9921875c-10.3613281,0-19.6855469,2.3300781-27.9716797,6.9921875
		c-8.2910156,4.6621094-14.8017578,11.1762695-19.5361328,19.5356445
		c-4.7382812,8.3632812-7.1044922,17.7255859-7.1044922,28.0830078c0,10.3613281,2.3662109,19.7236328,7.1044922,28.0830078
		c4.734375,8.3632812,11.2451172,14.8740234,19.5361328,19.5361328c8.2861328,4.6621094,17.6103516,6.9931641,27.9716797,6.9931641
		C1641.3623047,465.5390625,1650.6865234,463.2080078,1658.9765625,458.5458984z"/>
	<path class="st14" d="M1805.71875,433.7929688v54.8339844h-28.8603516v-54.3896484l-61.0498047-101.0102539h30.8583984
		l45.5097656,75.7016602l45.9541016-75.7016602h28.4160156L1805.71875,433.7929688z"/>
	<path class="st14" d="M1999.7460938,464.4287109v24.1982422h-116.5498047V333.2270508h113.4414062v24.1982422h-84.5820312
		v40.4038086h75.0361328v23.7539062h-75.0361328v42.8457031H1999.7460938z"/>
	<path class="st14" d="M2133.6123047,488.6269531l-31.7460938-45.5097656
		c-1.3320312,0.1484375-3.3300781,0.2216797-5.9941406,0.2216797h-35.0761719v45.2880859h-28.859375V333.2270508h63.9355469
		c13.4658203,0,25.1972656,2.2207031,35.1875,6.6601562c9.9902344,4.4404297,17.6484375,10.8056641,22.9765625,19.0917969
		c5.328125,8.2910156,7.9921875,18.1313477,7.9921875,29.5258789c0,11.6933594-2.8515625,21.7558594-8.546875,30.1923828
		c-5.6992188,8.4355469-13.875,14.7275391-24.53125,18.8701172l35.7421875,51.0595703H2133.6123047z M2123.1787109,365.6391602
		c-6.5146484-5.328125-16.0605469-7.9921875-28.6386719-7.9921875h-33.7441406v61.9379883h33.7441406
		c12.578125,0,22.1240234-2.6982422,28.6386719-8.1025391c6.5107422-5.4013672,9.7675781-13.0605469,9.7675781-22.9775391
		C2132.9462891,378.5908203,2129.6894531,370.9667969,2123.1787109,365.6391602z"/>
</g>
</svg>
