<?xml version="1.0" encoding="utf-8"?>
<!-- Generator: Adobe Illustrator 24.3.0, SVG Export Plug-In . SVG Version: 6.00 Build 0)  -->
<svg version="1.1" id="Слой_1" xmlns="http://www.w3.org/2000/svg" xmlns:xlink="http://www.w3.org/1999/xlink" x="0px" y="0px"
	 viewBox="0 0 4954.7 924.3" style="enable-background:new 0 0 4954.7 924.3;" xml:space="preserve">
<style type="text/css">
	.st0{fill:#0D1122;}
	.st1{fill:none;stroke:#FFFFFF;stroke-width:0.25;stroke-miterlimit:10;}
	.st2{fill:none;stroke:#FFFFFF;stroke-miterlimit:10;}
	.st3{fill:none;stroke:#3398FF;stroke-width:15;stroke-miterlimit:10;}
	.st4{fill:none;stroke:#3398FF;stroke-width:10;stroke-miterlimit:10;}
	.st5{fill:none;stroke:#3398FF;stroke-width:20;stroke-miterlimit:10;}
</style>
<rect x="-13.3" class="st0" width="5010.7" height="981.3"/>
<g>
	<path class="st1" d="M2906.7,547.4"/>
	<path class="st1" d="M3250.3,547.4"/>
	<path class="st1" d="M2809.8,547.4"/>
	<path class="st1" d="M2909.5,547.4"/>
	<path class="st2" d="M3355.8,548.8"/>
	<path class="st2" d="M2809.9,548.8"/>
	<path class="st3" d="M3306.7,380.9c0,3.5-1.5,5-5,6.5c-88.9,52.8-348.4,51.1-428.5,4.9c-12.8-6.2-12.7-6.3-12.7-18.4
		c0-29.3,0-103.3,0-132.7v-0.4c0-2.4,0.8-4.1,3.5-3.3c8.2,2.5,18.3,4.8,26.2,7.2c58.5,17.6,117,35.2,175.5,52.7
		c14.3,4.3,28.5,4.1,42.8-0.2c64-19.5,126.1-37.2,190.2-56.7c0.2,0,2.2-0.6,2.4-0.7c2.8-0.8,5.6-0.3,5.6,2.1l0,0
		C3306.6,273.2,3306.5,349.4,3306.7,380.9z"/>
	<path class="st3" d="M3527.1,168.3c-1.1-0.7-2.3-1.4-3.6-1.8c-6.5-2.2-13.1-4.4-19.6-6.4c-41.8-13.8-83.6-27.3-125.4-41.1
		c-92.5-30.2-184.9-60.5-277.4-90.7c-8.8-2.9-17.6-3-26.5-0.1c-34.7,11.2-69.5,22.4-104.3,33.6L2679,155.5
		c-12.3,4-24.7,7.9-36.9,12.1c-0.6,0.2-1.1,0.5-1.7,0.9c-1.8,1.4-1.8,3.7,0.1,4.9c0.5,0.4,1.1,0.7,1.7,0.9c4,1.5,10.4,4.2,14.7,5.1
		c4.2,0.9,6.7,1.3,6.6,4.6c-0.7,17.1,0.5-4.4-0.8,28.1l0.4,31.5c-0.8,0-1.4-0.1-1.9-0.1c-0.7,0-2.3-0.1-2.8,0
		c-14.1,0.8-26.8,3.6-40.1,7.3c-18.4,5.3-33.9,13.8-45.2,26.2c-12,13.4-15.8,28.4-15,44.4c0.5,11.8,4.5,23,13,32.9
		c8.4,10,19.9,17.4,33,23.5c15.7,7.2,32.8,12.2,50.4,16.1c1.8,0.4,2.4,0.8,2.4,2.4c-0.1,34.3-2.6,60.3-2.6,94.6v5.4
		c-5.4-0.6-7.7-1.6-12-2c-13.1-2.6-20.8-4.4-33.2-8c-9.8-4.1-17.9-5.8-22.5-13.1c-1.3-1.9-1-3.1,0.6-4.7
		c10.5-10.4,13.4-22.2,8.4-34.7c-4.6-11.5-22.1-15.9-34.5-9c-5.7,3.2-9.3,7.6-11.2,12.9c-3.5,9.6-2.3,19.3,1.7,28.6
		c4.9,11.9,14.8,21,27.3,28.6c18.7,11.4,40.5,16.9,63.9,19.3c1.7,0.2,3.3,0.3,4.9,0.4c5.1,0.4,9.1,3.9,9.1,8v29.6h20.1v-1.8
		c0-11.1,0.1-21.2,0-32.4c0-1,0.6-1.3,2.2-1.5c8.6-1,16.8-2.8,25.2-4.2c16.4-2.7,31.9-7.2,45.7-14.7c16.6-8.9,28.6-20.6,34.4-35.6
		c4.3-11.4,4.9-23,2.8-34.5c-2.8-15.3-11.4-28.4-26.3-38.9c-11.3-7.8-24.4-13.6-38.1-18.5c-12.2-4.4-24.7-8-37.5-11.1
		c-1.8-0.4-2.3-1-2.2-2.3c0.2-2.3,0.1-4.5,0.1-6.7c0.1-24.6,0.1-49.4,0.2-74c0-3,0-5.9,0.1-8.9l0.3-3.9c-0.9-0.5,40.9,4.4,49.6,10.7
		c1,0.8,3.1,2.3,2.5,3.3c-1.8,2.6-1.8,3.7-3,6.4c-4.2,8.7-4.8,17.5-0.2,26.3c4.3,8.4,14,12.6,25.2,10.9c9.3-1.4,14.7-6.1,17.1-12.8
		c4-10.7,2-21-5-30.7c-6.3-8.9-16.1-15.1-27.3-20.3c-15.5-7-32.6-10.2-50.2-11.9c-2.4-0.3-8.7-0.7-9.3-0.8l0.7-31.4
		c1.2-28.7-0.1-7.9,0.9-24c0.1-1.2,0.9-1.6,1.6-1.5c2.1,0.2-0.8-0.1,1.8,0.3c3.2,1,10.4,2.9,10.6,3c105,29.8,107.3,30.1,154.3,43.5
		c72.7,20.7,145.4,41.3,218.1,62.1c11.6,3.3,22.6,3.3,34.1-0.1c70.3-20.3,140.6-40.6,210.8-60.9l0,0c69.2-20,138.1-39.9,207.2-59.9
		c1.5-0.4,2.7-1.1,4-1.9C3529.2,172.2,3529.3,169.6,3527.1,168.3z M2639,350.5c-8.9-3.6-14-6-20.3-11.6
		c-8.2-7.1-11.3-13.2-12.7-22.3c-1.5-10.6-0.9-17.6,4.3-27.6c6.8-13,18.1-20.5,35.6-24.7c3.8-0.9,7.4-1.6,11.4-2.3
		c1.8-0.3,3.5,0.7,3.6,2.2c0.6,15.7-0.2,93-0.2,93C2645.8,353.3,2645.8,353.2,2639,350.5z M2687.5,401.9
		c10.9,2.9,21.1,6.5,29.9,12.1c13,8.1,19.7,18.6,20.7,31.5c0.8,9-0.8,17.6-5.9,25.7c-8.4,13.2-23.1,18.9-40.4,24.1
		c-3.7,0.7-7.6,1.5-11.8,1.8v-97.5C2683.4,400.6,2685,401.3,2687.5,401.9z"/>
	<g>
		<path class="st4" d="M3120.7,60.4c-0.1,0.5-0.4,1-0.6,1.5c-9.4,20.4-18.9,41.1-28.5,61.9c-0.3,0.6-0.5,1.3-0.9,2.2
			c1.9-0.1,3.4-0.2,4.9-0.3c4.6-0.4,9.1-0.8,13.8-1.1c0.9-0.1,1.7-0.3,2.5-0.2c0.8,0.1,1.6,0.2,2.3,0.5c1.2,0.6,1.5,1.9,0.9,3.1
			c-0.2,0.5-0.5,0.9-0.8,1.3c-10,15.6-20.1,31.5-30.3,47.4c-0.2,0.4-0.5,0.7-0.7,1.1c-0.6,1.1-0.3,1.6,1,1.5
			c2.4-0.1,4.8-0.4,7.2-0.5c4.8-0.4,9.5-0.8,14.3-1.2c0.1,0,0.2,0,0.3,0c1.3-0.1,2.5,0.2,3.2,1.4c0.7,1.2,0.1,2.2-0.7,3.2
			c-11.5,14.5-23,29-34.6,43.7c-11.3,14.3-22.7,28.5-34.1,43c-0.4,0.4-0.6,0.9-1.1,1.2c-0.3,0.2-0.9,0.3-1.3,0.2
			c-0.6-0.2-0.6-0.8-0.3-1.3c0.2-0.4,0.4-0.8,0.6-1.2c11.8-24.5,23.5-48.6,34.9-72.4c0.3-0.5,0.5-1.1,0.9-1.9c-0.8,0-1.3,0-1.8,0
			c-5.6,0.5-11.4,1-17,1.5c-1.4,0.1-2.7,0.3-4,0.3c-0.8,0-1.7-0.3-2.4-0.7c-0.9-0.5-1.2-1.7-0.7-2.7c0.2-0.5,0.6-1,0.9-1.5
			c9.5-14.7,19-29.1,28.4-43.5c0.2-0.3,0.4-0.5,0.5-0.8c0.1-0.4,0.4-1.1,0.3-1.4c-0.2-0.3-1-0.4-1.4-0.4c-1.5,0.1-3.1,0.2-4.6,0.4
			c-4.7,0.4-9.4,0.8-14.1,1.1c-0.3,0-0.7,0-1,0c-1.1,0-2-0.5-2.5-1.4c-0.5-1-0.3-1.9,0.4-2.7c3.4-4.4,6.8-8.6,10.2-12.9
			c18.1-23,36-45.6,53.7-68.1c0.3-0.4,0.7-0.9,1.1-1.2c0.3-0.2,0.8-0.3,1.1-0.1C3120.5,59.6,3120.7,60.1,3120.7,60.4z"/>
	</g>
	<path class="st5" d="M3204.2,479.9c31.2,30.5,50.5,72.7,50.5,119.1c0,93.3-77.6,169-173.4,169c-95.8,0-173.4-75.6-173.4-169
		c0-46.4,19.3-88.6,50.5-119.1"/>
	<line class="st5" x1="3028.8" y1="454.9" x2="3028.8" y2="643.4"/>
	<line class="st5" x1="3136.8" y1="453.5" x2="3136.8" y2="644.7"/>
	<g>
		<path class="st5" d="M399.3,426.2c30.4,13.5,53.5,32.8,69.7,57.9c16.2,25.1,24.3,55,24.3,89.6c0,34.1-8.2,64-24.3,89.3
			c-16.2,25.5-39.5,44.9-69.7,58.3c-30.4,13.5-65.9,20.2-106.9,20.2H185.9v136.1H98.2V405.9h194
			C333.4,405.9,369.1,412.6,399.3,426.2z M375.5,643.2c19.7-16.2,29.7-39.3,29.7-69.4s-10-53.2-29.7-69.4
			c-19.7-16.2-48.8-24.3-87-24.3H186v187.3h102.5C326.7,667.4,355.7,659.4,375.5,643.2z"/>
		<path class="st5" d="M677.1,853.1c-38.3-20.9-68.5-49.8-90.2-86.7c-21.9-36.9-32.6-78.3-32.6-124.7s10.9-87.8,33-124.7
			c22-36.9,52.2-65.8,90.6-86.7c38.3-20.9,81.4-31.3,129.1-31.3c38.7,0,73.9,6.7,105.7,20.2c31.8,13.5,58.9,33,80.9,58.6l-56.6,53.2
			c-34.1-36.9-76.2-55.3-126-55.3c-32.3,0-61.4,7-87,21.2c-25.6,14.2-45.5,33.8-60.1,58.9c-14.4,25.1-21.5,53.7-21.5,85.7
			s7.2,60.4,21.5,85.5c14.4,25.1,34.4,44.9,60.1,58.9c25.6,14.2,54.7,21.2,87,21.2c49.9,0,91.9-18.6,126-56l56.6,53.9
			c-22,25.6-49.1,45.2-81.3,58.6c-32.1,13.5-67.6,20.2-106.1,20.2C758.5,884.4,715.4,874,677.1,853.1z"/>
		<path class="st5" d="M1617.5,804.3v73.4h-353.8V405.9H1608v73.4h-256.9v122.7H1579v72.1h-227.8v130.1L1617.5,804.3L1617.5,804.3z"
			/>
		<path class="st5" d="M2134.5,405.9v471.8h-72.1l-260.1-319.5v319.5h-87V405.9h72.1l260.1,319.5V405.9H2134.5z"/>
		<path class="st5" d="M2251.3,866.6c-25.5-11.9-46.2-28.7-62.3-50.3l49.9-60.1c26.1,35.9,57.3,53.9,93.7,53.9c49,0,73.4-29,73.4-87
			V479.4h-167.8v-73.4h255.4v312.7c0,55.3-13.5,96.8-40.5,124.3c-26.9,27.6-66.6,41.4-118.6,41.4
			C2304.5,884.4,2276.8,878.5,2251.3,866.6z"/>
		<path class="st5" d="M3707.5,711.5V878h-87.6V712.8l-185.4-306.6h93.7L3666.4,636l139.5-229.8h86.3L3707.5,711.5z"/>
		<path class="st5" d="M4296.6,804.5V878h-353.8V406.2h344.3v73.4h-256.9v122.7h227.8v72.1h-227.8v130.1L4296.6,804.5L4296.6,804.5z
			"/>
		<path class="st5" d="M4702.9,878l-96.4-138.2c-4.1,0.5-10.1,0.7-18.3,0.7H4482v137.4h-87.6V406.2h194c41,0,76.5,6.7,106.9,20.2
			s53.5,32.8,69.7,57.9c16.2,25.1,24.3,55,24.3,89.6c0,35.6-8.6,66.1-25.9,91.7c-17.3,25.6-42.1,44.7-74.4,57.3l108.5,155
			L4702.9,878L4702.9,878z M4671.3,504.6c-19.7-16.2-48.8-24.3-87-24.3H4482v188h102.5c38.2,0,67.2-8.2,87-24.6
			c19.7-16.3,29.7-39.7,29.7-69.7C4701,543.9,4691,520.7,4671.3,504.6z"/>
	</g>
	<path class="st5" d="M2380.5,517.7"/>
	<path class="st5" d="M3013.5,278.8"/>
	<path class="st5" d="M3146.6,279.5"/>
	<path class="st5" d="M3051.9,290.9"/>
	<path class="st5" d="M3300.7,388c45.4,51.9,73.1,120.1,73.1,194.8c0,162.1-129.9,293.6-290.1,293.6
		c-160.3,0-290.1-131.5-290.1-293.6c0-74.4,27.4-142.4,72.6-194.2"/>
</g>
</svg>
