<?xml version="1.0" encoding="utf-8"?>
<!-- Generator: Adobe Illustrator 24.3.0, SVG Export Plug-In . SVG Version: 6.00 Build 0)  -->
<svg version="1.1" id="Слой_1" xmlns="http://www.w3.org/2000/svg" xmlns:xlink="http://www.w3.org/1999/xlink" x="0px" y="0px"
	 viewBox="0 0 750 777.6" style="enable-background:new 0 0 750 777.6;" xml:space="preserve">
<style type="text/css">
	.st0{fill:#000033;}
	.st1{fill:none;stroke:#3398FF;stroke-width:4;stroke-miterlimit:10;}
	.st2{fill:none;stroke:#3398FF;stroke-width:20;stroke-miterlimit:10;}
	.st3{fill:none;stroke:#FFFFFF;stroke-width:0.25;stroke-miterlimit:10;}
	.st4{fill:none;stroke:#FFFFFF;stroke-miterlimit:10;}
	.st5{fill:none;stroke:#3398FF;stroke-width:6;stroke-miterlimit:10;}
</style>
<rect class="st0" width="750" height="780.6"/>
<path class="st1" d="M343.2,232.4C343.2,232.4,343.2,232.4,343.2,232.4c-0.2,0-0.4,0.1-0.6,0.1"/>
<path class="st2" d="M223.1,282.5L223.1,282.5c-67,49-110.3,127.1-110.3,215c0,148.4,123.5,268.7,275.8,268.7
	s275.8-120.3,275.8-268.7c0-86.9-42.4-164.2-108.1-213.3"/>
<path class="st1" d="M440,233.5c-0.2,0-0.5-0.1-0.7-0.1"/>
<path class="st3" d="M211.5,496.6"/>
<path class="st3" d="M558.5,496.6"/>
<path class="st3" d="M113.5,496.6"/>
<path class="st3" d="M214.3,496.6"/>
<path class="st4" d="M665.2,498"/>
<path class="st4" d="M113.6,498"/>
<g>
	<path class="st5" d="M558.5,279.3c0,3.1-1.1,4.5-3.8,5.9c-41.2,21.1-84.5,36.2-130.9,41.8c-68.2,8.2-132.6-2.8-192-37.5
		c-9.6-5.6-9.6-5.7-9.6-16.5c0-26.3,0-52.6,0-78.9v-0.4c0-2.1,2.2-3.6,4.2-2.9c6.2,2.2,12.2,4.3,18.1,6.4
		c44.1,15.7,88.1,31.5,132.2,47.2c10.7,3.8,21.5,3.7,32.2-0.2c48.2-17.5,96.4-34.9,144.7-52.4c0.1,0,0.3-0.1,0.4-0.1
		c2.1-0.7,4.2,0.8,4.2,2.9l0,0C558.4,222.8,558.3,251,558.5,279.3z"/>
	<path class="st5" d="M706.2,131.4c-0.8-0.6-1.6-1.2-2.5-1.6c-4.6-1.9-9.3-3.9-14-5.8c-29.8-12.3-59.6-24.5-89.5-36.8
		C534.2,60.2,468.3,33.1,402.3,6c-6.3-2.6-12.6-2.7-18.9-0.1c-24.8,10-49.6,20.1-74.4,30.1L101.2,120c-8.8,3.5-17.6,7.1-26.3,10.8
		c-0.4,0.2-0.8,0.4-1.2,0.8c-1.3,1.2-1.3,3.3,0.1,4.5c0.3,0.3,0.7,0.6,1.2,0.8c2.8,1.3,5.9,2.4,8.9,3.2c3,0.8,3,2.6,2.9,5.5
		c-0.5,15.4-0.2,32-0.7,47.4l0.1,15.1c-0.2,0-0.4,0.1-0.6,0.1c-0.3,0-0.5,0-0.7,0.1c-5.3,0.4-10.5,1.3-15.5,3.1
		c-7,2.5-12.8,6.5-17.1,12.5c-4.5,6.3-6,13.5-5.7,21.1c0.2,5.6,1.7,10.9,4.9,15.6c3.2,4.8,7.5,8.3,12.4,11.1
		c5.9,3.4,12.4,5.8,19,7.6c0.7,0.2,0.9,0.4,0.9,1.1c0,16.3-0.8,31.2-0.8,47.5l0,0.7c-1.7-0.1-2.9-0.2-4.5-0.3
		c-4.9-0.7-8.7-1.7-12.9-4.4c-3.3-2-6.5-3.6-8.3-7c-0.5-0.9-0.4-1.5,0.2-2.2c4-4.9,5.1-10.5,3.2-16.4c-1.7-5.4-8.3-7.5-13-4.3
		c-2.2,1.5-3.5,3.6-4.2,6.1c-1.3,4.6-0.9,9.1,0.6,13.6c1.9,5.6,5.6,10,10.3,13.5c7.1,5.4,15.3,8,24.1,9.1c0.6,0.1,1.2,0.1,1.9,0.2
		c1.9,0.2,3.4,1.8,3.4,3.8l0,14h7.6v-0.8c0-5.3,0-10.1,0-15.3c0-0.5,0.2-0.6,0.8-0.7c3.2-0.4,6.3-1.3,9.5-2c6.2-1.3,12-3.4,17.2-6.9
		c6.3-4.2,10.8-9.8,13-16.9c1.6-5.4,1.8-10.9,1-16.4c-1-7.3-4.3-13.5-9.9-18.4c-4.2-3.7-9.2-6.4-14.4-8.8c-4.6-2.1-9.3-3.8-14.2-5.2
		c-0.7-0.2-0.9-0.5-0.8-1.1c0.1-1.1,0-2.1,0-3.2c0-11.7,0-23.4,0.1-35.1c0-1.4,0-2.8,0-4.2l0.1-2.6c-0.3-0.2,16.9,2.5,20.2,5.5
		c0.4,0.4,0.4,0.6,0.2,1.1c-0.7,1.2-1.3,2.5-1.8,3.8c-1.5,4.1-1.8,8.3-0.1,12.5c1.6,4,5.3,6,9.5,5.2c3.5-0.6,5.5-2.9,6.5-6
		c1.5-5.1,0.7-10-1.9-14.6c-2.4-4.2-6.1-7.2-10.3-9.6c-5.9-3.3-12.3-4.8-18.9-5.6c-0.9-0.1-3.3-0.3-3.5-0.4l0.3-15.3
		c-0.3-13.8,0.5-28,0.7-42.3c0-0.7,0.2-3,0.5-3.6c0.5-1.2,0.3-1.7,2.1-1.5c0.1,0.1,0.2-0.1,0.3,0c42.7,15.2,85,30,127.6,45.2
		c51.9,18.5,103.7,37,155.5,55.6c8.2,3,16.1,2.9,24.3-0.1c50.1-18.2,100.2-36.4,150.4-54.6h0c49.3-17.9,98.5-35.7,147.8-53.7
		c1-0.4,1.9-1,2.8-1.7C707.6,135,707.7,132.6,706.2,131.4z M76.1,258.3c-3.4-1.7-5.3-2.9-7.6-5.5c-3.1-3.4-4.3-6.2-4.8-10.6
		c-0.6-5-0.3-8.3,1.6-13.1c2.6-6.2,6.8-9.7,13.4-11.7c1.4-0.4,2.8-0.8,4.3-1.1c0.7-0.2,1.3,0.3,1.3,1c0.2,7.5-0.1,44-0.1,44
		C78.6,259.5,78.7,259.5,76.1,258.3z M95.4,282.9c4.1,1.4,7.9,3.1,11.3,5.7c4.9,3.8,7.4,8.8,7.8,14.9c0.3,4.3-0.3,8.4-2.2,12.2
		c-3.2,6.2-8.4,10.1-15.3,11.8c-1.4,0.3-2.8,0.5-4.4,0.8V282C93.6,282.3,94.5,282.6,95.4,282.9z"/>
</g>
<g>
	<path class="st5" d="M429,29.6c-0.1,0.5-0.3,0.9-0.6,1.4c-8.6,18.7-17.4,37.7-26.2,56.8c-0.3,0.6-0.5,1.2-0.8,2
		c1.7-0.1,3.1-0.2,4.6-0.3c4.2-0.3,8.4-0.7,12.6-1c0.8-0.1,1.6-0.2,2.3-0.2c0.7,0.1,1.5,0.2,2.1,0.5c1.1,0.6,1.4,1.7,0.8,2.8
		c-0.2,0.4-0.5,0.8-0.7,1.2c-9.2,14.4-18.4,28.9-27.8,43.6c-0.2,0.3-0.4,0.7-0.6,1c-0.5,1-0.3,1.5,0.9,1.4c2.2-0.1,4.4-0.3,6.6-0.5
		c4.4-0.4,8.7-0.7,13-1.1c0.1,0,0.2,0,0.3,0c1.2-0.1,2.3,0.2,2.9,1.3c0.6,1.1,0.1,2-0.6,2.9c-10.5,13.2-21.1,26.6-31.8,40.1
		c-10.3,13.1-20.8,26.2-31.3,39.4c-0.3,0.4-0.6,0.9-1,1.1c-0.3,0.2-0.8,0.3-1.2,0.2c-0.5-0.2-0.5-0.7-0.3-1.1
		c0.2-0.4,0.3-0.7,0.5-1.1c10.8-22.4,21.5-44.6,32.1-66.5c0.2-0.5,0.5-1,0.8-1.7c-0.7,0-1.2,0-1.6,0c-5.2,0.4-10.4,0.9-15.6,1.3
		c-1.2,0.1-2.4,0.3-3.7,0.3c-0.7,0-1.6-0.3-2.2-0.7c-0.9-0.5-1-1.5-0.7-2.4c0.2-0.5,0.5-0.9,0.8-1.4c8.8-13.4,17.5-26.7,26.1-39.9
		c0.2-0.2,0.4-0.5,0.5-0.7c0.1-0.4,0.4-1,0.2-1.2c-0.2-0.3-0.9-0.4-1.3-0.3c-1.4,0.1-2.8,0.2-4.2,0.3c-4.3,0.3-8.6,0.7-12.9,1
		c-0.3,0-0.6,0-0.9,0c-1,0-1.8-0.4-2.3-1.3c-0.5-0.9-0.3-1.7,0.4-2.5c3.1-4,6.2-7.9,9.3-11.8c16.6-21.1,33.1-41.9,49.3-62.5
		c0.3-0.4,0.6-0.8,1-1.1c0.2-0.2,0.8-0.2,1-0.1C428.9,28.8,429.1,29.3,429,29.6z"/>
</g>
<path class="st2" d="M512.1,375.5c31.5,30.8,51,73.4,51,120.3c0,94.3-78.4,170.7-175.2,170.7s-175.2-76.4-175.2-170.7
	c0-46.9,19.5-89.5,51-120.3"/>
<line class="st2" x1="334.8" y1="350.3" x2="334.8" y2="540.6"/>
<line class="st2" x1="444" y1="348.9" x2="444" y2="542"/>
</svg>
