<?xml version="1.0" encoding="utf-8"?>
<!-- Generator: Adobe Illustrator 24.3.0, SVG Export Plug-In . SVG Version: 6.00 Build 0)  -->
<svg version="1.1" id="Слой_1" xmlns="http://www.w3.org/2000/svg" xmlns:xlink="http://www.w3.org/1999/xlink" x="0px" y="0px"
	 viewBox="0 0 3424 737" style="enable-background:new 0 0 3424 737;" xml:space="preserve">
<style type="text/css">
	.st0{fill:#000033;}
	.st1{fill:none;stroke:#3398FF;stroke-width:4;stroke-miterlimit:10;}
	.st2{fill:none;stroke:#FFFFFF;stroke-width:0.25;stroke-miterlimit:10;}
	.st3{fill:none;stroke:#FFFFFF;stroke-miterlimit:10;}
	.st4{fill:none;stroke:#3398FF;stroke-width:6;stroke-miterlimit:10;}
	.st5{fill:#3398FF;}
	.st6{fill:none;}
</style>
<rect x="-17.8" y="-4.3" class="st0" width="3460.4" height="741.5"/>
<path class="st1" d="M316.3,220.3C316.3,220.3,316.3,220.3,316.3,220.3c-0.2,0-0.4,0.1-0.6,0.1"/>
<path class="st1" d="M202.7,267.7L202.7,267.7C139.2,314.1,98.2,388,98.2,471.3c0,140.5,116.9,254.4,261.1,254.4
	s261.2-113.9,261.2-254.4c0-82.3-40.1-155.5-102.4-202"/>
<path class="st1" d="M408,221.3c-0.2,0-0.5-0.1-0.7-0.1"/>
<path class="st2" d="M191.6,470.4"/>
<path class="st2" d="M520.2,470.4"/>
<path class="st2" d="M98.9,470.4"/>
<path class="st2" d="M194.3,470.4"/>
<path class="st3" d="M621.2,471.7"/>
<path class="st3" d="M98.9,471.7"/>
<g>
	<path class="st1" d="M520.2,264.6c0,2.9-1,4.3-3.6,5.6c-39,20-80,34.3-123.9,39.6c-64.6,7.8-125.5-2.6-181.8-35.5
		c-9.1-5.3-9-5.4-9-15.6c0-24.9,0-49.8,0-74.7v-0.4c0-2,2.1-3.4,4-2.7c5.9,2.1,11.5,4,17.2,6.1c41.7,14.9,83.5,29.9,125.2,44.7
		c10.2,3.6,20.4,3.5,30.5-0.2c45.7-16.5,91.3-33.1,137-49.6c0.1,0,0.2-0.1,0.4-0.1c1.9-0.7,4,0.7,4,2.7l0,0
		C520.1,211.2,520,237.9,520.2,264.6z"/>
	<path class="st1" d="M660.1,124.7c-0.8-0.6-1.5-1.2-2.4-1.5c-4.4-1.8-8.8-3.7-13.2-5.5c-28.2-11.7-56.5-23.2-84.7-34.8
		c-62.4-25.6-124.9-51.3-187.3-77c-5.9-2.4-11.9-2.5-17.9-0.1c-23.5,9.5-47,19-70.4,28.5L87.2,113.8c-8.3,3.4-16.7,6.7-24.9,10.2
		c-0.4,0.2-0.8,0.4-1.1,0.7c-1.2,1.2-1.2,3.1,0.1,4.2c0.3,0.3,0.7,0.6,1.1,0.8c2.7,1.2,5.5,2.3,8.4,3.1c2.8,0.8,3.5,2.3,3.5,5
		c-0.5,14.6-0.9,30.5-1.4,45l0.1,14.3c-0.2,0-0.4,0.1-0.5,0.1c-0.2,0-0.5,0-0.6,0.1c-5,0.3-9.9,1.2-14.7,2.9
		c-6.6,2.4-12.1,6.2-16.2,11.8c-4.3,6-5.7,12.7-5.4,19.9c0.2,5.3,1.6,10.3,4.6,14.8c3,4.5,7.1,7.8,11.8,10.5
		c5.6,3.2,11.7,5.5,18,7.2c0.6,0.2,0.8,0.4,0.8,1.1c0,15.4,0,30.8,0,46.2v0.9c-1.6-0.1-3.2-0.3-4.7-0.4c-4.7-0.6-9.1-2-13.1-4.5
		c-3.1-1.9-5.6-4.4-7.2-7.6c-0.4-0.8-0.4-1.4,0.2-2.1c3.8-4.7,4.8-10,3-15.6c-1.6-5.1-7.9-7.1-12.3-4.1c-2.1,1.4-3.3,3.4-4,5.8
		c-1.2,4.3-0.8,8.7,0.6,12.8c1.8,5.3,5.3,9.4,9.8,12.8c6.7,5.1,14.5,7.6,22.8,8.6c1.7,0.2,3.3,0.3,5,0.5v16.5h7.2v-0.8
		c0-5,0-10,0-15c0-0.4,0.1-0.7,0.6-0.7c3.1-0.4,6.2-0.7,9.2-1.3c5.9-1.2,11.4-3.3,16.3-6.6c5.9-4,10.2-9.2,12.3-16
		c1.5-5.1,1.7-10.3,1-15.5c-1-6.9-4.1-12.7-9.4-17.5c-4-3.5-8.7-6.1-13.6-8.3c-4.4-2-8.8-3.6-13.4-5c-0.6-0.2-0.8-0.4-0.8-1
		c0.1-1,0-2,0-3c0-11.1,0-22.1,0.1-33.2c0-1.3,0-2.7,0-4v-3.3c0-0.2,0.5-0.5,0.7-0.5c0.1,0,0.1,0,0.2,0c2.5,0.4,5,0.6,7.5,1.2
		c4.1,0.9,7.7,2.6,10.8,5.4c0.4,0.3,0.4,0.6,0.2,1c-0.6,1.2-1.2,2.3-1.7,3.6c-1.5,3.9-1.7,7.9-0.1,11.8c1.5,3.8,5,5.6,9,4.9
		c3.3-0.6,5.2-2.7,6.1-5.7c1.4-4.8,0.7-9.4-1.8-13.8c-2.3-4-5.7-6.8-9.7-9.1c-5.5-3.1-11.6-4.6-17.9-5.3c-0.8-0.1-1.7-0.2-2.6-0.3
		c-0.3,0-0.5-0.1-0.8-0.1l0.1-14.5c-0.5-13.6-0.8-28.6-1.2-42.2v-0.6c-0.1-2.1,2-3.5,4-2.8c0.1,0.1,0.2,0.1,0.4,0.1
		c40.4,14.4,80.8,28.9,121.2,43.3c49.1,17.5,98.2,35.1,147.3,52.6c7.8,2.8,15.2,2.7,23-0.1c47.5-17.2,94.9-34.5,142.4-51.7h0
		c46.7-16.9,93.3-33.8,140-50.8c1-0.4,1.8-0.9,2.7-1.6C661.4,128,661.5,125.8,660.1,124.7z M65,243.8c-2.7-1.3-5.2-2.9-7.3-5.1
		c-2.7-2.8-4.2-6.2-4.7-9.9c-0.5-4.2-0.2-8.4,1.3-12.4c2.3-5.8,6.6-9.4,12.5-11.3c1.7-0.6,3.5-0.9,5.3-1.4c0.2,0,0.6,42.9,0.6,42.9
		S67.5,245,65,243.8z M80.7,267.3c4.1,1.3,7.9,3.1,11.3,5.7c4.9,3.8,7.4,8.8,7.8,14.9c0.3,4.2-0.3,8.3-2.2,12.2
		c-3.2,6.2-8.4,10-15.3,11.7c-1.4,0.3-2.8,0.5-4.4,0.8v-46.1C78.9,266.8,79.9,267,80.7,267.3z"/>
</g>
<g>
	<path class="st1" d="M388.6,39.5c-0.1,0.4-0.3,0.7-0.4,1.1c-6.8,14.6-13.7,29.2-20.5,43.8c-0.2,0.4-0.4,0.9-0.6,1.5
		c1.3-0.1,2.3-0.1,3.4-0.2c3.1-0.3,6.3-0.5,9.4-0.8c0.6,0,1.2-0.2,1.7-0.1c0.5,0,1.1,0.1,1.5,0.4c0.8,0.4,1,1.3,0.6,2.1
		c-0.2,0.3-0.4,0.6-0.6,0.9c-7,10.8-14,21.7-21.1,32.5c-0.2,0.2-0.3,0.5-0.5,0.7c-0.4,0.7-0.2,1.1,0.6,1c1.6-0.1,3.2-0.2,4.9-0.4
		c3.2-0.3,6.4-0.5,9.6-0.8c0.1,0,0.1,0,0.2,0c0.9-0.1,1.7,0.1,2.1,1c0.4,0.8,0,1.5-0.5,2.1c-7.9,9.7-15.8,19.4-23.6,29.1
		c-7.6,9.3-15.2,18.7-22.8,28c-0.2,0.3-0.4,0.6-0.7,0.8c-0.2,0.1-0.6,0.2-0.9,0.1c-0.4-0.1-0.4-0.5-0.2-0.8c0.1-0.3,0.2-0.5,0.4-0.8
		c7.8-15.9,15.7-31.7,23.5-47.6c0.2-0.4,0.3-0.7,0.6-1.2c-0.5,0-0.9,0-1.2,0c-3.8,0.3-7.6,0.6-11.5,1c-0.9,0.1-1.8,0.2-2.7,0.2
		c-0.5,0-1.1-0.2-1.6-0.5c-0.6-0.4-0.8-1.1-0.5-1.8c0.2-0.3,0.4-0.7,0.6-1c6.5-9.8,13-19.7,19.4-29.5c0.1-0.2,0.3-0.3,0.3-0.5
		c0.1-0.3,0.3-0.7,0.2-0.9c-0.2-0.2-0.6-0.3-1-0.3c-1,0-2.1,0.2-3.1,0.3c-3.2,0.3-6.4,0.5-9.6,0.8c-0.2,0-0.4,0-0.6,0
		c-0.7,0-1.3-0.3-1.7-1c-0.4-0.7-0.2-1.3,0.3-1.9c2.3-3,4.7-5.9,7-8.9c12.6-16,25.2-32.1,37.7-48.1c0.2-0.3,0.5-0.6,0.8-0.9
		c0.2-0.1,0.6-0.2,0.8-0.1C388.6,38.9,388.7,39.3,388.6,39.5z"/>
</g>
<path class="st4" d="M476.3,355.8c29.8,29.2,48.3,69.5,48.3,114c0,89.3-74.3,161.7-165.9,161.7S192.6,559,192.6,469.8
	c0-44.4,18.5-84.8,48.3-114"/>
<line class="st4" x1="308.4" y1="331.9" x2="308.4" y2="512.2"/>
<line class="st4" x1="411.8" y1="330.6" x2="411.8" y2="513.5"/>
<g>
	<g>
		<g>
			<path class="st5" d="M915.2,264.1c13.3,5.8,25.6,14.2,35.4,25.2c9.8,10.9,16.8,24.5,20.3,38.9c1.8,7.2,2.7,14.7,2.9,22.1
				c0.3,7.4-0.1,14.9-1.6,22.3c-1.4,7.4-3.5,14.6-6.5,21.5c-3.1,6.9-6.9,13.4-11.6,19.3c-4.6,5.9-10.1,11.2-16,15.9
				c-6,4.6-12.4,8.4-19.2,11.6c-13.5,6.4-28.1,10.2-42.8,12c-7.3,0.9-14.7,1.4-22.1,1.4l-21.9,0h-43.6l3-3v80.8v3h-3h-52h-3v-3v-280
				v-3l3,0l45,0l11.3-0.1c3.8,0,7.5,0.1,11.3,0.2l11.3,0.3l11.3,0.4l22.5,0.8c7.5,0.2,15.1,0.7,22.6,1.7
				C886.7,254.4,901.5,257.9,915.2,264.1z M915.2,264.1c-13.8-6.1-28.6-9.3-43.6-10.4c-3.7-0.3-7.5-0.4-11.2-0.4
				c-3.7,0-7.5,0.1-11.2,0.2l-22.5,0.8l-11.3,0.4l-11.3,0.3c-3.8,0.1-7.5,0.2-11.3,0.2l-11.3-0.1l-45,0l3-3v280l-3-3h52l-3,3v-80.8
				v-3h3h43.6l21.8,0c7.2-0.1,14.3-0.5,21.4-1.4c14.2-1.8,28.1-5.4,40.9-11.4c6.4-3,12.5-6.7,18.1-11c5.6-4.3,10.6-9.3,14.9-14.8
				c4.3-5.5,7.9-11.6,10.8-18c2.8-6.4,4.9-13.2,6.1-20.2c2.3-13.9,2.8-28.4,0.4-42.4c-1.2-7-3.2-13.9-6-20.5c-1.4-3.3-3-6.5-4.9-9.6
				c-1.9-3.1-3.9-6.1-6.1-8.9c-4.5-5.7-9.8-10.7-15.6-15.1C928.2,270.6,921.8,267.1,915.2,264.1z"/>
			<path class="st5" d="M901,392.9c3.3-2.8,6.3-6,8.6-9.7c2.3-3.6,3.9-7.7,5-11.8c2.1-8.3,1.9-16.9,0.9-25.1
				c-0.6-4.1-1-8.2-2.2-12.1c-1.2-3.9-2.9-7.6-5-11.1c-4.3-6.9-10.7-12.3-18-16c-7.3-3.7-15.6-5.8-23.9-6.9c-4.2-0.5-8.4-0.9-12.7-1
				c-4.2-0.1-8.6-0.1-12.9-0.1h-52.1l3-3v111.2l-3-3h28.9h14.4c4.8,0,9.6,0,14.4-0.1c2.4,0,4.8,0.1,7.1,0.2c2.4,0,4.7,0.1,7.1,0.1
				c4.7-0.1,9.5-0.3,14.2-1c4.7-0.7,9.4-1.8,13.9-3.5C893,398.3,897.3,395.9,901,392.9z M901,392.9c-7.5,6.1-16.4,10.2-25.7,13.1
				c-9.3,2.8-19.3,4.3-28.9,4.4c-4.8-0.1-9.6-0.1-14.4-0.1h-14.4h-28.9h-3v-3V296.1v-3h3h52.1c4.3,0,8.6,0,13.1,0.1
				c4.4,0.1,8.9,0.5,13.3,1c8.8,1.2,17.7,3.4,25.8,7.5c8.1,4.1,15.5,10.3,20.4,18.1c2.5,3.9,4.4,8.2,5.7,12.6
				c1.3,4.4,2.3,8.9,2.3,13.4c0.2,9-1.3,18.1-4.7,26.3C913.2,380.3,907.7,387.4,901,392.9z"/>
		</g>
	</g>
	<g>
		<g>
			<path class="st5" d="M1080,517.5c-9.3-5.1-18.2-11.1-26.2-18c-8-6.9-15.4-14.7-21.7-23.3c-6.4-8.6-11.8-17.9-16.1-27.7
				c-4.3-9.8-7.4-20.2-9.4-30.8c-1.9-10.6-2.7-21.4-2.5-32.2l0.2-4l0.3-4c0.3-2.7,0.5-5.4,0.9-8.1c0.8-5.4,1.8-10.7,3.2-15.9
				c5.3-21,15.8-40.7,29.9-57.1c7.1-8.2,15.2-15.5,23.9-21.9c4.4-3.2,9-6.1,13.7-8.8c4.7-2.7,9.5-5.1,14.5-7.3
				c19.8-8.7,41.5-12.9,63.1-13.2c21.5-0.4,43.3,2.8,63.5,10.7c10.1,3.9,19.8,9,28.7,15.3c8.9,6.2,17,13.6,24.1,21.8l1.9,2.2l-2.1,2
				l-33.6,31.6l-2.2,2.1l-2.1-2.2c-6.7-7.2-14.2-13.6-22.6-18.5c-4.2-2.5-8.5-4.7-13.1-6.5l-1.7-0.7l-1.7-0.6
				c-1.2-0.4-2.3-0.8-3.5-1.2c-2.3-0.7-4.7-1.4-7.1-1.9c-2.4-0.6-4.8-0.9-7.2-1.4c-2.4-0.3-4.8-0.7-7.3-0.8
				c-1.2-0.1-2.4-0.2-3.7-0.2l-3.7-0.1c-2.5-0.1-4.9,0-7.4,0.1c-9.8,0.5-19.5,2.2-28.8,5.4c-9.2,3.1-18,7.8-25.8,13.6
				c-3.9,2.9-7.6,6.1-10.9,9.7c-3.4,3.5-6.4,7.3-9.1,11.4c-5.5,8.1-9.6,17-12.3,26.4c-2.7,9.4-3.9,19.2-3.8,29
				c0,9.8,1.2,19.6,3.9,29c2.7,9.4,6.8,18.3,12.4,26.4c5.5,8.1,12.3,15.2,20.1,21c7.8,5.8,16.6,10.4,25.8,13.5
				c9.2,3.1,19,4.9,28.8,5.3c2.4,0.1,4.9,0.2,7.4,0.1l3.7-0.1c1.2-0.1,2.4-0.2,3.7-0.2l1.8-0.1l1.8-0.2c1.2-0.2,2.4-0.3,3.6-0.5
				c2.4-0.4,4.8-0.8,7.2-1.4c2.4-0.5,4.7-1.2,7.1-1.9c1.2-0.4,2.3-0.8,3.5-1.2c1.2-0.4,2.3-0.8,3.4-1.3c1.1-0.5,2.3-0.9,3.4-1.4
				l3.3-1.6c1.1-0.5,2.1-1.2,3.2-1.7l1.6-0.9l1.6-1c8.4-5,15.8-11.5,22.5-18.7l2.1-2.2l2.2,2.1l33.6,32l2.1,2l-1.9,2.2
				c-11.4,13.1-25.3,24.3-41.1,31.7c-15.7,7.5-32.7,11.8-49.8,13.5c-8.6,0.8-17.1,1-25.7,0.7c-8.6-0.3-17.1-1.3-25.5-2.8
				C1111.3,531.3,1095,525.6,1080,517.5z M1080,517.5c7.5,4,15.3,7.5,23.4,10.1c8.1,2.6,16.4,4.6,24.8,5.8c4.2,0.6,8.4,1,12.6,1.3
				c4.2,0.2,8.5,0.4,12.7,0.3c8.5-0.1,16.9-0.7,25.2-2c16.7-2.5,32.9-7.5,47.7-15.3c3.7-1.9,7.3-4,10.8-6.3
				c3.5-2.2,6.9-4.6,10.2-7.1c6.6-5,12.6-10.8,18.1-17.1l0.2,4.1l-33.6-32l4.3-0.1c-7,7.6-14.9,14.4-23.8,19.8l-1.7,1l-1.7,0.9
				c-1.1,0.6-2.3,1.3-3.4,1.8l-3.5,1.7c-1.2,0.6-2.4,1-3.6,1.5c-1.2,0.5-2.4,1-3.6,1.4c-1.2,0.4-2.4,0.9-3.7,1.3
				c-2.5,0.7-5,1.5-7.5,2c-2.5,0.6-5.1,1-7.6,1.5c-1.3,0.2-2.6,0.3-3.9,0.5l-1.9,0.2l-1.9,0.1c-1.3,0.1-2.6,0.2-3.9,0.3l-3.9,0.1
				c-2.6,0.1-5.2,0-7.7-0.1c-10.3-0.5-20.6-2.3-30.4-5.6c-9.8-3.3-19.1-8.2-27.5-14.4c-8.3-6.2-15.7-13.8-21.5-22.4
				c-5.9-8.6-10.3-18.1-13.2-28.1c-2.8-10-4.1-20.4-4.1-30.7c0-10.3,1.3-20.7,4.1-30.7c2.8-10,7.3-19.5,13.1-28.1
				c2.9-4.3,6.2-8.4,9.8-12.1c3.6-3.8,7.5-7.2,11.7-10.3c8.3-6.2,17.6-11.1,27.4-14.4c9.8-3.3,20.1-5.2,30.4-5.7
				c2.6-0.1,5.1-0.2,7.7-0.1l3.9,0.1c1.3,0,2.6,0.2,3.9,0.2c2.6,0.1,5.1,0.5,7.7,0.8c2.5,0.5,5.1,0.8,7.6,1.5c2.5,0.5,5,1.3,7.5,2
				c1.2,0.4,2.5,0.8,3.7,1.2l1.8,0.6l1.8,0.7c4.8,1.9,9.5,4.3,13.9,6.9c8.9,5.3,16.9,12.1,23.9,19.6l-4.3-0.1l33.6-31.6l-0.2,4.1
				c-6.8-7.9-14.5-14.9-23-20.8c-8.5-5.9-17.7-10.8-27.4-14.6c-19.4-7.6-40.4-10.7-61.2-10.3c-20.9,0.3-41.7,4.3-60.8,12.7
				c-4.8,2.1-9.4,4.4-13.9,7c-4.5,2.6-8.9,5.4-13.1,8.4c-8.4,6.1-16.1,13.1-22.9,21c-13.6,15.7-23.6,34.5-28.7,54.7
				c-2.6,10.1-3.8,20.4-4.4,30.8c-0.3,5.2-0.4,10.4-0.2,15.6c0.2,5.2,0.6,10.4,1.3,15.6c1.4,10.3,3.9,20.6,7.6,30.4
				c1.8,4.9,4,9.7,6.4,14.4c2.4,4.7,5.1,9.2,8.1,13.6c5.9,8.8,12.9,16.8,20.8,23.9c1,0.9,2,1.8,3,2.6l3.1,2.5
				c2.1,1.6,4.2,3.2,6.4,4.7C1070.9,512.1,1075.4,514.9,1080,517.5z"/>
		</g>
	</g>
	<g>
		<g>
			<path class="st5" d="M1638.2,488.5c0.2,14.3,0.5,28.9,0.8,43.6l0,0.8l-0.8,0l-105,1.6c-17.5,0.2-35,0.5-52.5,0.7l-26.2-0.1
				l-26.2,0h-3v-3v-280v-3h3h204.4h3v3v43.6v3h-3h-152.4l3-3v72.8l-3-3h135.2h3v3v42.8v3h-3h-135.2l3-3l0,19.3
				c0,6.4,0.1,12.9,0,19.3l-0.6,38.6l-2.5-2.5L1638.2,488.5z M1638.2,488.5l-79.5,1.2l-78.5,1.3l-2.4,0l0-2.5l-0.6-38.6
				c-0.1-6.4,0-12.9,0-19.3l0-19.3l0-3h3h135.2l-3,3v-42.8l3,3h-135.2h-3v-3v-72.8v-3h3h152.4l-3,3v-43.6l3,3h-204.4l3-3v280l-3-3
				l26.2,0l26.2-0.1c17.5,0.1,35,0.5,52.5,0.7l105,1.6l-0.8,0.8C1637.7,517.8,1638,503.2,1638.2,488.5z"/>
		</g>
	</g>
	<g>
		<g>
			<path class="st5" d="M1945,252.1l2,139.2l0.5,35.1c0.2,11.7,0.4,23.4,0.5,35.2l0,70.6l0,3h-3h-42.8h-1.4l-0.9-1.1l-154.4-189.6
				l5.3-1.9v189.6v3h-3h-51.6h-3v-3v-280v-3h3h42.8h1.4l0.9,1.1l154.4,189.6l-5.3,1.9l-0.1-23.7c0-7.9,0.1-15.8,0.2-23.7l0.7-47.4
				l1.3-94.8l0-0.9l0.9,0C1910.8,251.5,1928,251.9,1945,252.1z M1945,252.1c-17.4,0.2-34.6,0.6-51.6,0.9l0.9-0.9l1.3,94.8l0.7,47.4
				c0.1,7.9,0.2,15.8,0.2,23.7l-0.1,23.7l0,8.4l-5.3-6.5L1736.7,254l2.3,1.1h-42.8l3-3v280l-3-3h51.6l-3,3V342.5v-8.4l5.3,6.5
				l154.4,189.6l-2.3-1.1h42.8l-3,3l0-69.4c0.1-11.6,0.3-23.2,0.5-34.8l0.5-34.9L1945,252.1z"/>
		</g>
	</g>
	<g>
		<g>
			<path class="st5" d="M2014.4,525.5c-3.6-1.7-7.2-3.6-10.6-5.6c-3.4-2.1-6.7-4.4-9.9-6.8c-3.2-2.5-6.2-5.1-9-8
				c-2.9-2.8-5.5-5.8-8-9l-0.3-0.4l0.3-0.4l7.2-9.1l7.1-9.1l14.2-18.3l1.6-2l1.6,2.1c3.6,4.7,7.6,9.1,11.9,13c4.3,3.9,9,7.4,14.1,10
				c5.1,2.7,10.4,4.7,16,5.9c5.6,1.3,11.4,1.5,17.1,1.1c5.7-0.5,11.3-1.8,16.2-4.4c4.9-2.5,8.9-6.4,11.9-11.2
				c2.9-4.7,4.8-10.2,5.9-15.8c1.1-5.7,1.5-11.5,1.5-17.4V295.7l3,3h-99.6h-3v-3v-43.6v-3h3h151.6h3v3v98.2v49.1v24.5v12.3
				c0,4.1-0.1,8.3-0.3,12.4c-0.5,8.3-1.5,16.6-3.5,24.8c-2,8.2-4.8,16.2-8.9,23.7c-3.9,7.5-9.5,14.2-15.9,19.8
				c-3.2,2.8-6.7,5.2-10.3,7.4l-2.8,1.5l-1.4,0.8l-1.4,0.7c-1,0.4-1.9,0.9-2.9,1.3l-2.9,1.2c-1,0.4-2,0.7-2.9,1.1c-1,0.3-2,0.7-3,1
				c-2,0.6-4,1.2-6,1.6l-3,0.7l-3.1,0.6c-2,0.4-4.1,0.6-6.1,0.9c-8.2,1.1-16.5,1.2-24.7,1c-4.1-0.1-8.2-0.5-12.3-1
				c-4.1-0.5-8.1-1.2-12.1-2.2C2029.6,531.6,2021.8,529,2014.4,525.5z M2014.4,525.5c14.8,6.9,31.3,10.2,47.6,10
				c8.1-0.2,16.3-0.8,24.2-2.3c2-0.4,4-0.8,5.9-1.3l2.9-0.7l2.9-0.9c1.9-0.5,3.8-1.3,5.7-1.9c0.9-0.4,1.9-0.8,2.8-1.1
				c0.9-0.4,1.9-0.8,2.7-1.2l2.7-1.3c0.9-0.5,1.7-0.9,2.6-1.4l1.3-0.7l1.3-0.8l2.5-1.6c3.3-2.2,6.4-4.6,9.3-7.3
				c0.7-0.7,1.4-1.4,2.1-2.1c0.7-0.7,1.4-1.4,2-2.1l1.9-2.2l1.8-2.3c2.4-3.1,4.6-6.4,6.4-9.8c3.9-6.9,6.5-14.4,8.4-22.1
				c1.9-7.7,2.9-15.7,3.4-23.7c0.2-4,0.3-8,0.3-12.1v-12.3v-24.5v-49.1v-98.2l3,3h-151.6l3-3v43.6l-3-3h99.6h3v3v144.5
				c0,6.1-0.4,12.4-1.6,18.5c-1.2,6.1-3.3,12.3-6.7,17.8c-3.4,5.5-8.3,10.3-14.1,13.3c-5.8,3.1-12.2,4.5-18.5,5
				c-3.1,0.3-6.3,0.2-9.4,0.1c-1.6-0.1-3.1-0.3-4.7-0.4c-1.6-0.3-3.1-0.4-4.7-0.8c-1.5-0.4-3.1-0.6-4.6-1.1l-2.3-0.7
				c-0.8-0.2-1.5-0.5-2.2-0.8c-0.7-0.3-1.5-0.5-2.2-0.9l-2.1-1c-1.5-0.6-2.8-1.4-4.2-2.2c-5.5-3.2-10.4-7.1-14.8-11.5
				c-4.4-4.4-8.2-9.2-11.7-14.3l3.2,0.1l-15.4,17.3l-7.7,8.7l-7.6,8.7l0-0.8c2.3,3.2,4.8,6.3,7.5,9.3c2.7,2.9,5.6,5.6,8.7,8.2
				C2000.3,517.9,2007.2,522.1,2014.4,525.5z"/>
		</g>
	</g>
	<g>
		<g>
			<path class="st5" d="M2214.9,357c-0.1-1.1-0.1-2.1-0.1-3.2c0-1,0-2.1,0.1-3.2c0.1-2.1,0.2-4.2,0.5-6.3c1.3-3.9,2.8-7.8,4.4-11.6
				c3.3-7.6,7.2-14.9,11.8-21.8c4.5-6.9,9.7-13.4,15.3-19.4c2.8-3,5.8-5.9,8.9-8.6c3.7-2.1,7.4-3.9,11.4-5.4
				c-2.5,3.4-5.1,6.6-7.4,9.9c-3,2.6-5.8,5.4-8.5,8.2c-5.4,5.7-10.3,12-14.7,18.6c-4.3,6.6-8.1,13.6-11.3,20.8
				c-1.6,3.6-3,7.3-4.2,11.1L2214.9,357z"/>
			<path class="st5" d="M2307.6,256.7c7.2-2.8,14.7-5,22.3-6.6c7.6-1.6,15.3-2.8,23.1-3.4c3.9-0.3,7.8-0.5,11.7-0.5
				c2-0.1,3.9,0,5.9,0c2,0,3.9,0.1,5.9,0.2c7.8,0.4,15.6,1.2,23.4,2.7l2.9,0.6c1,0.2,1.9,0.5,2.9,0.7c1.9,0.5,3.8,1,5.7,1.6
				c3.8,1.1,7.5,2.4,11.2,3.8c7.4,2.8,14.5,6.2,21.3,10.1c13.7,7.8,26.2,17.8,36.6,29.7c5.2,5.9,9.9,12.3,14.1,19
				c4.2,6.7,7.8,13.8,10.7,21.1c6,14.6,9.2,30.3,10.2,46c0.9,15.7-0.1,31.5-3.8,46.9c-1.8,7.7-4.3,15.2-7.4,22.5
				c-3.1,7.3-6.8,14.2-11.1,20.9c-4.3,6.6-9.1,12.9-14.4,18.7c-5.3,5.8-11.2,11.2-17.4,16c-12.5,9.6-26.4,17.3-41.3,22.7
				c-14.8,5.4-30.4,8.4-46.1,9.4c-15.7,1-31.4,0.1-46.9-2.9c-15.4-3-30.5-8.4-44.3-16c-13.8-7.6-26.6-17.2-37.2-28.9
				c-10.3-12-18.6-25.6-24.3-40.1c-2.9-7.3-5.1-14.8-6.7-22.4c-1.6-7.6-2.5-15.3-2.8-23.1c1.8,15.3,6,30.3,12.5,44.2
				c6.5,13.8,15.3,26.5,25.8,37.3c2.7,2.7,5.2,5.4,8,8c2.7,2.6,5.7,5,8.6,7.3c6,4.6,12.4,8.7,19,12.4c13.3,7.2,27.7,12.4,42.6,15.3
				c14.9,2.9,30.2,3.8,45.4,2.8c15.2-1,30.2-3.8,44.4-9c14.2-5.1,27.7-12.5,39.6-21.8c6-4.7,11.5-9.8,16.6-15.3
				c5.1-5.6,9.7-11.6,13.8-17.9c4.1-6.4,7.6-13,10.6-20c3-6.9,5.3-14.2,7.1-21.5c3.5-14.7,4.5-30,3.7-45.1
				c-1-15.1-4.1-30.1-9.8-44.1c-2.8-7-6.3-13.8-10.3-20.2c-4-6.4-8.5-12.5-13.5-18.2c-9.9-11.4-21.9-20.9-35.1-28.4
				c-6.6-3.8-13.4-7-20.5-9.7c-3.5-1.3-7.1-2.6-10.8-3.6l-2.7-0.8l-2.8-0.7c-1.8-0.5-3.7-0.9-5.5-1.4c-14.7-3.7-30-5.1-45.3-5
				C2337.8,250.1,2322.4,252.3,2307.6,256.7z"/>
			<path class="st5" d="M2302.4,312.1c4.4-3.6,9.3-6.7,14.3-9.5c5.1-2.7,10.4-5,16-6.7c5.5-1.8,11.2-3,17-3.9
				c5.8-0.8,11.6-1.2,17.5-1.2c2.9,0,5.8,0.3,8.8,0.7c2.9,0.4,5.8,0.8,8.7,1.4c5.8,1.1,11.4,2.8,16.9,5
				c10.9,4.3,21.1,10.5,29.8,18.5c17.4,15.9,28.4,38.4,31.1,61.7c1.3,11.6,1.1,23.4-1.1,35c-2.2,11.5-6.3,22.8-12.3,32.8
				c-3,5.1-6.5,9.8-10.3,14.3c-3.9,4.4-8.2,8.5-12.8,12.1c-9.3,7.3-19.9,12.8-31.1,16.3c-5.6,1.7-11.4,3-17.2,3.8
				c-5.8,0.8-11.7,1.1-17.5,1c-11.7-0.1-23.4-2-34.5-5.9c-11.1-3.9-21.5-9.8-30.5-17.4c-9-7.6-16.5-17-22.1-27.3
				c-5.3-10.5-8.5-22-9.8-33.5c-0.6-5.8-0.8-11.5-0.5-17.3c0.3-5.7,1-11.5,2.1-17c-0.6,5.7-0.7,11.4-0.4,17c0.3,5.7,0.9,11.3,2,16.8
				c2.2,11,6.1,21.6,11.9,31.1c1.4,2.4,2.8,4.8,4.3,7.1c1.5,2.3,3.2,4.5,4.9,6.7c3.5,4.3,7.3,8.3,11.5,11.8
				c8.4,7.1,18.2,12.6,28.6,16.3c10.4,3.7,21.5,5.5,32.6,5.6c5.6,0.1,11.1-0.2,16.6-1c5.5-0.7,10.9-1.9,16.2-3.6
				c10.5-3.3,20.5-8.5,29.2-15.3c4.4-3.4,8.4-7.2,12-11.3c3.6-4.2,6.9-8.7,9.7-13.4c5.7-9.5,9.6-20,11.6-30.9
				c2-10.9,2.3-22.2,1-33.2c-1.3-11-4.4-21.8-9.4-31.7c-4.9-9.9-11.6-18.9-19.8-26.4c-8.1-7.5-17.7-13.3-28-17.4
				c-10.3-4.1-21.3-6.2-32.4-6.6c-11.1-0.9-22.4-0.3-33.3,2.1c-5.5,1.2-10.9,3-16.1,5.1C2312.2,306.3,2307.2,308.9,2302.4,312.1z"/>
		</g>
	</g>
	<g>
		<g>
			<path class="st5" d="M2676.6,433.3l1.2,49.6l1.1,49.2l0,2.2l-2.3,0l-26,0.5l-13,0.2c-4.3,0.1-8.7,0-13,0l-3.1,0l0-3
				c0.1-16.3,0-32.7,0.1-49v-49l0.4,1.6l-110-182l-2.8-4.6h5.3h55.6h1.7l0.9,1.5l82,136.4l-5.1,0l82.8-136.4l0.9-1.4h1.7h51.2h5.3
				l-2.8,4.6l-27.3,45.1c-8.8,15.2-18.5,29.9-27.9,44.9l-28.4,44.8L2676.6,433.3z M2676.6,433.3l26.2-45.7l26.4-45.8
				c8.9-15.3,17.5-30.7,26.9-45.7l27.5-45.5l2.6,4.6H2735l2.6-1.4l-82.8,136.4l-2.6,4.2l-2.6-4.3l-82-136.4l2.6,1.5h-55.6l2.6-4.6
				l110,182l0.4,0.7v0.8v49c0,16.3-0.1,32.7,0.1,49l-3.1-3.1c4.3,0,8.7,0,13,0l13,0.2l26,0.5l-2.3,2.3l1.1-49.6L2676.6,433.3z"/>
		</g>
	</g>
	<g>
		<g>
			<path class="st5" d="M3026.2,488.5c0.2,14.3,0.5,28.9,0.8,43.6l0,0.8l-0.8,0l-105,1.6c-17.5,0.2-35,0.5-52.5,0.7l-26.2-0.1
				l-26.2,0h-3v-3v-280v-3h3h204.4h3v3v43.6v3h-3h-152.4l3-3v72.8l-3-3h135.2h3v3v42.8v3h-3h-135.2l3-3l0,19.3
				c0,6.4,0.1,12.9,0,19.3l-0.6,38.6l-2.5-2.5L3026.2,488.5z M3026.2,488.5l-79.5,1.2l-78.5,1.3l-2.4,0l0-2.5l-0.6-38.6
				c-0.1-6.4,0-12.9,0-19.3l0-19.3l0-3h3h135.2l-3,3v-42.8l3,3h-135.2h-3v-3v-72.8v-3h3h152.4l-3,3v-43.6l3,3h-204.4l3-3v280l-3-3
				l26.2,0l26.2-0.1c17.5,0.1,35,0.5,52.5,0.7l105,1.6l-0.8,0.8C3025.7,517.8,3026,503.2,3026.2,488.5z"/>
		</g>
	</g>
	<g>
		<g>
			<path class="st5" d="M3267.4,532.1L3238,492l-14.8-20.2l-14.8-20.4l2,0.9c-6.4,0.7-12.6,0.6-18.7,0.8l-18.5,0.3
				c-6.2,0.1-12.3,0.2-18.5,0.2l-18.5-0.1l3-3v81.6v3h-3h-52h-3v-3v-280v-3h3h101.2h12.6c4.2,0,8.5,0.1,12.8,0.3
				c4.3,0.2,8.5,0.6,12.8,1.1c4.3,0.5,8.5,1.2,12.7,2.1c16.8,3.4,33.3,9.8,47.4,20c7,5.1,13.4,11.2,18.7,18.2
				c5.3,6.9,9.6,14.6,12.6,22.8c3.1,8.2,5,16.7,5.8,25.3c0.9,8.6,0.9,17.3-0.1,25.9c-0.9,8.6-2.9,17.2-6,25.3
				c-3.1,8.1-7.5,15.8-12.9,22.7c-5.4,6.9-11.8,12.9-18.9,17.9c-7.1,5-14.9,9-22.9,12.1l1.4-4.5c5.4,7.6,10.9,15.3,16,23.1
				l15.6,23.3l31.3,46.6l1.3,2l-2.4-0.1l-28.2-0.6L3267.4,532.1z M3267.4,532.1l56-1.2l-1,2l-33.1-45.4l-16.6-22.7
				c-5.6-7.5-10.9-15.3-16.2-22.9l-2.2-3.1l3.5-1.4c7.6-3,15-6.8,21.7-11.5c6.7-4.7,12.7-10.3,17.7-16.7c5-6.4,9.1-13.6,12-21.1
				c2.9-7.6,4.8-15.6,5.7-23.8c0.9-8.1,0.9-16.5,0.1-24.6c-0.8-8.2-2.6-16.2-5.5-23.8c-5.7-15.3-16-28.7-29.3-38.2
				c-13.2-9.6-28.9-15.7-45.1-19c-4-0.8-8.1-1.5-12.2-2c-4.1-0.5-8.2-0.9-12.4-1.1c-4.2-0.2-8.3-0.3-12.5-0.3h-12.6h-101.2l3-3v280
				l-3-3h52l-3,3v-81.6v-3l3,0l18.5-0.1c6.2,0,12.3,0.1,18.5,0.2l18.5,0.3c6.2,0.1,12.4,0.4,18.2,0l1.4-0.1l0.7,1l27.6,41.4
				L3267.4,532.1z"/>
			<path class="st5" d="M3248.6,310.5c-3.7-3-8-5.4-12.4-7.2c-4.5-1.7-9.2-2.8-13.9-3.5c-4.7-0.7-9.5-0.9-14.2-1
				c-2.4,0-4.7,0-7.1,0.1c-2.4,0.1-4.7,0.2-7.1,0.2c-4.8-0.1-9.6-0.1-14.4-0.1H3165h-28.9l3-3v111.6l-3-3h52.1c4.3,0,8.7,0,12.9-0.1
				c4.2-0.1,8.5-0.5,12.7-1c8.4-1.1,16.6-3.2,23.9-7c7.3-3.8,13.7-9.2,18-16.1c2.2-3.4,3.8-7.2,5-11.1c0.3-1,0.5-2,0.8-3
				c0.2-1,0.4-2,0.6-3c0.3-2,0.7-4.1,1-6.1c1-8.3,1.2-16.9-0.9-25.2c-1-4.1-2.7-8.2-5-11.8C3254.9,316.5,3251.9,313.3,3248.6,310.5z
				 M3248.6,310.5c6.7,5.5,12.2,12.6,15.6,20.8c3.4,8.2,4.9,17.3,4.7,26.3c0,4.5-1,9-2.3,13.4c-1.3,4.4-3.2,8.7-5.7,12.6
				c-4.9,7.9-12.2,14.1-20.3,18.3c-8.1,4.2-17,6.5-25.8,7.6c-4.4,0.6-8.9,0.9-13.3,1.1c-4.5,0.1-8.8,0.1-13.1,0.1h-52.1h-3v-3V296.1
				v-3h3h28.9h14.4c4.8,0,9.6,0,14.4-0.1c1.2,0,2.4,0,3.6,0.1l3.7,0.2l3.7,0.4c1.2,0.1,2.4,0.3,3.7,0.5c4.9,0.7,9.7,1.8,14.3,3.2
				C3232.2,300.2,3241.1,304.5,3248.6,310.5z"/>
		</g>
	</g>
</g>
<g>
	<path class="st6" d="M2294.2,223.2"/>
</g>
<g>
	<path class="st6" d="M2361.8,392.1"/>
</g>
<g>
	<path class="st6" d="M2184.9,407.7"/>
</g>
<g>
	<path class="st6" d="M2361.8,392.1"/>
</g>
<g>
	<path class="st6" d="M2361.8,392.1"/>
</g>
<g>
	<path class="st6" d="M2250.1,241.6"/>
</g>
<g>
	<path class="st6" d="M2162.4,357"/>
</g>
<g>
	<path class="st6" d="M2361.8,392.1"/>
</g>
</svg>
